<?xml version="1.0" standalone="no"?>
<!DOCTYPE svg PUBLIC "-//W3C//DTD SVG 20010904//EN"
 "http://www.w3.org/TR/2001/REC-SVG-20010904/DTD/svg10.dtd">
<svg version="1.0" xmlns="http://www.w3.org/2000/svg"
 width="1024.000000pt" height="1024.000000pt" viewBox="0 0 1024.000000 1024.000000"
 preserveAspectRatio="xMidYMid meet">

<g transform="translate(0.000000,1024.000000) scale(0.100000,-0.100000)"
fill="#000000" stroke="none">
<path d="M3891 8548 c-115 -16 -260 -85 -356 -169 -64 -56 -152 -174 -195
-262 -76 -156 -71 -6 -68 -1928 l3 -1724 36 -97 c72 -191 191 -331 344 -404
50 -24 117 -50 150 -59 66 -18 413 -34 621 -29 l121 2 6 -141 c10 -207 8 -498
-3 -606 -7 -62 -19 -113 -35 -148 -32 -71 -121 -163 -192 -199 -57 -28 -62
-29 -253 -34 -107 -3 -253 -4 -323 -2 -110 3 -129 6 -133 20 -27 83 -72 140
-138 175 -55 29 -174 30 -226 3 -100 -53 -157 -131 -167 -230 -7 -65 8 -115
54 -178 57 -78 181 -124 286 -104 50 9 113 55 151 109 l33 47 334 2 c324 3
336 4 389 26 135 58 264 172 321 283 54 109 58 137 65 576 l7 405 163 -4 c89
-1 166 -7 171 -11 9 -9 17 -1918 8 -1953 -3 -13 -16 -25 -30 -28 -37 -9 -105
-75 -126 -121 -12 -26 -19 -64 -19 -111 0 -123 64 -222 169 -259 130 -45 286
18 335 137 23 53 20 156 -4 222 -23 61 -78 117 -132 135 l-35 12 4 807 c2 444
6 889 9 990 l6 182 179 -2 179 -3 0 -376 c0 -342 2 -383 20 -454 25 -98 77
-207 126 -264 50 -58 167 -133 252 -163 65 -22 75 -23 389 -21 l323 3 41 -61
c33 -49 52 -66 98 -87 140 -66 301 -9 373 131 44 86 19 222 -54 297 -92 96
-216 115 -318 50 -63 -41 -117 -103 -132 -152 l-11 -39 -286 6 c-303 7 -362
15 -449 59 -94 48 -171 158 -198 285 -15 73 -18 267 -7 589 l6 202 326 0 c357
0 444 10 563 63 113 51 233 147 297 240 51 75 112 208 127 276 11 55 14 294
14 1401 0 1290 -1 1336 -19 1377 -39 84 -131 210 -228 311 -120 123 -151 132
-159 45 -3 -32 46 -143 81 -183 7 -8 44 -71 81 -140 l68 -125 -2 -1291 c-1
-817 -6 -1311 -12 -1345 -31 -167 -127 -302 -267 -377 -123 -65 -165 -73 -438
-83 -537 -20 -2235 -4 -2342 22 -103 25 -173 66 -253 147 -94 96 -136 184
-151 320 -6 53 -8 727 -7 1742 l3 1655 21 55 c38 100 73 157 131 220 67 73
183 144 262 161 42 9 270 12 881 10 l825 -2 55 -25 c110 -51 400 -155 412
-148 48 30 -149 205 -342 305 l-65 33 -275 7 c-398 10 -1394 8 -1469 -3z
m-471 -5747 c35 -25 54 -86 41 -132 -22 -72 -86 -100 -162 -69 -58 25 -79 122
-37 175 42 53 104 64 158 26z m3604 0 c38 -25 66 -70 66 -106 0 -37 -30 -88
-65 -111 -53 -35 -146 23 -160 100 -9 43 15 90 58 116 40 25 64 25 101 1z
m-1837 -1052 c97 -36 108 -146 20 -199 -39 -24 -49 -25 -94 -3 -112 53 -89
198 34 212 6 0 24 -4 40 -10z"/>
<path d="M7260 8433 c-21 -7 -40 -33 -40 -54 0 -17 75 -59 105 -59 41 0 62 90
26 110 -21 10 -65 12 -91 3z"/>
<path d="M4029 8201 c-123 -13 -221 -78 -304 -201 -93 -139 -85 20 -85 -1763
0 -1720 -3 -1633 59 -1755 31 -61 115 -151 177 -189 22 -13 68 -33 104 -45 64
-21 75 -21 1180 -26 771 -3 1133 -1 1173 7 124 23 272 124 334 228 13 24 34
71 46 105 21 63 21 66 24 1392 3 1290 2 1330 -16 1372 -18 41 -53 79 -371 408
-58 59 -150 149 -205 198 -55 50 -141 131 -192 181 l-92 91 -883 2 c-486 1
-913 -1 -949 -5z m1577 -546 l1 -380 26 -51 c27 -54 96 -121 133 -130 12 -3
198 -4 415 -2 l394 3 0 -1220 0 -1220 -22 -58 c-32 -85 -81 -140 -161 -179
l-67 -33 -1111 1 c-1035 1 -1115 3 -1165 19 -102 34 -171 96 -218 195 l-26 55
0 1595 0 1595 27 46 c47 80 104 121 193 139 22 4 387 7 810 6 l770 -1 1 -380z
m525 23 c102 -103 235 -239 296 -303 l111 -115 -107 -2 c-58 -1 -221 -1 -361
1 -241 3 -256 4 -272 23 -16 18 -18 52 -18 381 l0 360 83 -79 c45 -43 165
-163 268 -266z"/>
<path d="M4135 7693 c-35 -9 -45 -24 -45 -72 0 -78 13 -86 122 -83 108 3 118
10 118 83 0 68 -15 79 -103 78 -40 -1 -81 -4 -92 -6z"/>
<path d="M4482 7670 c-29 -27 -28 -61 3 -94 l24 -26 315 0 c314 0 315 0 330
22 9 12 16 36 16 53 0 62 11 60 -342 63 -316 3 -324 2 -346 -18z"/>
<path d="M4476 7315 c-42 -42 -22 -97 41 -114 21 -6 131 -11 245 -11 l207 0
26 27 c14 15 25 34 25 41 0 17 -20 55 -34 64 -6 4 -120 8 -253 8 -202 0 -244
-2 -257 -15z"/>
<path d="M5154 7322 c-16 -10 -34 -48 -34 -70 0 -10 10 -28 23 -40 21 -20 34
-22 136 -22 106 0 113 1 136 25 30 30 31 54 4 89 -20 25 -23 26 -137 26 -64 0
-122 -4 -128 -8z"/>
<path d="M4110 7300 c-26 -26 -26 -72 1 -96 17 -15 37 -19 102 -20 72 0 85 3
104 23 27 26 29 59 7 91 -14 20 -23 22 -105 22 -76 0 -92 -3 -109 -20z"/>
<path d="M4484 6966 c-37 -26 -39 -64 -8 -97 l28 -29 469 1 469 2 19 31 c24
39 24 40 -3 70 l-23 25 -465 7 c-414 5 -467 4 -486 -10z"/>
<path d="M4110 6948 c-25 -27 -26 -69 -2 -98 15 -19 31 -24 95 -28 97 -6 127
9 127 66 0 21 -7 48 -16 60 -14 20 -24 22 -99 22 -74 0 -87 -3 -105 -22z"/>
<path d="M4145 6621 c-49 -10 -70 -75 -39 -119 14 -20 24 -22 104 -22 80 0 90
2 104 22 22 31 20 84 -4 108 -16 16 -32 20 -77 19 -32 -1 -71 -4 -88 -8z"/>
<path d="M4766 6622 c-233 -2 -272 -5 -288 -19 -25 -22 -23 -57 6 -90 l24 -28
283 2 c248 2 284 4 300 19 36 33 15 107 -33 115 -13 2 -144 3 -292 1z"/>
<path d="M5212 6608 c-7 -7 -12 -29 -12 -49 0 -59 22 -69 160 -69 111 0 118 1
139 24 24 26 23 64 -1 93 -14 18 -269 18 -286 1z"/>
<path d="M5617 6602 c-23 -25 -21 -56 6 -87 l22 -26 251 -6 252 -6 26 26 c31
31 34 76 8 100 -16 15 -51 17 -284 17 -244 0 -266 -1 -281 -18z"/>
<path d="M5339 6282 c-61 -3 -83 -18 -94 -63 -4 -17 0 -33 13 -49 17 -21 30
-25 97 -28 69 -4 79 -2 101 19 26 25 31 65 12 92 -17 23 -61 33 -129 29z"/>
<path d="M4122 6264 c-16 -11 -22 -25 -22 -54 0 -55 16 -66 112 -75 77 -6 83
-5 100 15 21 26 24 100 6 118 -18 18 -168 16 -196 -4z"/>
<path d="M4480 6260 c-29 -29 -26 -74 6 -99 26 -20 38 -21 325 -21 296 0 298
0 313 22 22 30 20 81 -2 101 -16 15 -54 17 -320 17 -289 0 -303 -1 -322 -20z"/>
<path d="M5618 6273 c-21 -5 -42 -56 -33 -83 15 -48 33 -51 320 -48 l268 3 18
34 c16 30 16 37 4 61 -8 15 -22 30 -30 34 -18 7 -520 6 -547 -1z"/>
<path d="M4708 5933 l-217 -3 -20 -27 c-27 -33 -26 -46 3 -79 l23 -28 276 -2
277 -3 15 29 c19 37 19 70 -1 98 -13 19 -23 22 -77 20 -34 -2 -160 -4 -279 -5z"/>
<path d="M4155 5923 c-34 -8 -55 -35 -55 -68 0 -56 16 -66 113 -72 104 -7 117
0 117 63 0 64 -24 84 -97 83 -32 -1 -67 -4 -78 -6z"/>
<path d="M5208 5913 c-9 -10 -18 -25 -20 -33 -7 -20 18 -67 41 -80 21 -11 229
-14 279 -4 49 10 70 84 34 117 -16 14 -43 17 -169 17 -130 0 -152 -2 -165 -17z"/>
<path d="M4130 5567 c-31 -15 -47 -68 -32 -101 10 -23 17 -25 102 -28 50 -2
95 -1 100 0 19 7 39 58 33 83 -12 49 -31 59 -107 59 -39 0 -82 -6 -96 -13z"/>
<path d="M4480 5560 c-27 -27 -26 -71 3 -98 l24 -22 478 2 478 3 20 26 c17 23
18 31 8 62 -7 19 -19 38 -27 41 -9 3 -229 6 -490 6 -461 0 -475 -1 -494 -20z"/>
<path d="M5620 5573 c-22 -9 -30 -24 -30 -64 0 -68 4 -69 302 -69 243 0 268 2
289 18 15 13 22 30 22 52 0 22 -7 39 -22 52 -21 16 -45 18 -285 17 -143 0
-268 -3 -276 -6z"/>
<path d="M4133 5210 c-47 -19 -56 -78 -18 -115 22 -22 32 -25 104 -25 71 0 82
2 95 22 18 26 21 80 6 109 -9 16 -21 19 -88 18 -42 0 -87 -4 -99 -9z"/>
<path d="M4486 5199 c-35 -28 -33 -61 5 -93 l31 -26 263 0 c237 0 265 2 285
18 15 12 22 29 23 54 2 69 6 68 -303 68 -265 0 -278 -1 -304 -21z"/>
<path d="M5680 5212 c-25 -2 -53 -11 -62 -19 -24 -22 -23 -64 2 -91 20 -22 26
-22 285 -22 261 0 264 0 279 22 21 30 20 71 -1 91 -15 13 -56 16 -238 19 -121
1 -240 2 -265 0z"/>
<path d="M5220 5190 c-28 -28 -25 -64 6 -89 23 -18 41 -21 135 -21 100 0 109
2 123 22 19 27 21 79 4 96 -8 8 -52 12 -130 12 -105 0 -120 -2 -138 -20z"/>
<path d="M4120 4852 c-15 -12 -22 -29 -23 -56 -2 -59 26 -76 124 -76 69 0 80
2 93 22 23 33 20 81 -7 106 -19 18 -35 22 -94 22 -53 0 -76 -4 -93 -18z"/>
<path d="M4503 4861 c-47 -21 -56 -79 -18 -116 l24 -25 275 0 275 0 21 27 c24
31 21 66 -9 96 -17 17 -42 19 -282 23 -156 3 -273 0 -286 -5z"/>
<path d="M5245 4853 c-46 -11 -61 -77 -25 -113 18 -18 33 -20 138 -20 101 0
121 3 134 18 29 32 30 58 4 89 -23 27 -27 28 -128 30 -56 1 -112 -1 -123 -4z"/>
<path d="M5626 4839 c-32 -25 -33 -50 -2 -86 l24 -28 251 -3 251 -3 25 25 c32
32 32 60 0 91 l-24 25 -249 0 c-237 0 -251 -1 -276 -21z"/>
<path d="M6002 7577 c-26 -27 -27 -47 -7 -87 49 -95 155 -89 155 9 0 32 -6 44
-35 70 -43 38 -83 40 -113 8z"/>
<path d="M1783 8032 c-12 -2 -34 -17 -48 -34 l-26 -31 3 -529 3 -530 37 -34
38 -34 405 0 c441 0 440 0 484 56 20 26 21 36 21 410 l0 384 -34 37 c-19 21
-78 74 -130 118 -71 60 -99 91 -112 123 -9 24 -27 48 -38 55 -15 8 -102 12
-301 12 -154 0 -290 -1 -302 -3z m499 -249 c3 -56 11 -110 17 -121 12 -23 57
-32 169 -32 l82 0 0 -320 0 -320 -345 0 -345 0 0 434 c0 239 -2 440 -5 448 -4
11 34 13 207 13 l213 0 7 -102z m179 15 c5 -11 3 -18 -7 -22 -27 -10 -29 -7
-25 42 3 42 5 45 13 22 6 -14 14 -32 19 -42z"/>
<path d="M1981 7584 c-50 -64 -20 -77 173 -72 171 3 186 9 186 64 l0 34 -169
0 -170 0 -20 -26z"/>
<path d="M2046 7422 c-41 -2 -64 -8 -72 -20 -19 -24 -17 -46 4 -65 27 -25 406
-25 441 -1 19 13 22 22 17 47 -4 17 -12 35 -19 39 -11 8 -234 8 -371 0z"/>
<path d="M1986 7208 c-21 -29 -20 -51 2 -71 15 -14 40 -17 143 -16 68 1 162 4
209 7 l85 7 3 35 c6 57 -6 60 -229 60 -193 0 -198 -1 -213 -22z"/>
<path d="M7897 7475 c-39 -39 -3 -95 61 -95 45 0 62 14 62 51 0 34 -19 49 -68
56 -28 4 -43 1 -55 -12z"/>
<path d="M7991 6954 l-31 -26 0 -219 c0 -120 -1 -219 -2 -220 -2 0 -72 -4
-156 -7 -136 -6 -155 -10 -168 -27 -23 -31 -17 -78 12 -106 24 -23 33 -24 174
-27 l148 -3 -5 -78 c-3 -43 -2 -131 2 -196 7 -112 9 -120 35 -147 21 -20 38
-28 64 -28 37 0 79 32 266 205 42 39 132 118 202 177 69 59 128 115 132 124
17 45 6 60 -171 226 -98 91 -209 192 -248 224 -38 32 -94 80 -123 106 -61 55
-87 59 -131 22z m254 -355 c72 -66 151 -137 178 -157 26 -20 47 -39 47 -42 0
-3 -17 -16 -37 -30 -21 -14 -86 -68 -146 -120 -60 -52 -125 -108 -144 -124
l-35 -30 4 105 c3 93 6 108 31 144 36 52 34 77 -8 124 l-35 38 0 107 c0 58 3
106 8 106 4 0 66 -55 137 -121z"/>
<path d="M2136 6509 c-29 -34 -31 -45 -16 -83 10 -28 64 -66 92 -66 9 0 30 12
47 26 64 53 25 154 -59 154 -30 0 -44 -6 -64 -31z"/>
<path d="M7344 6510 c-34 -13 -64 -59 -64 -97 0 -46 54 -103 97 -103 71 1 119
99 77 159 -13 18 -73 53 -86 50 -2 0 -13 -4 -24 -9z"/>
<path d="M2898 6495 c-61 -34 -53 -138 12 -165 63 -26 129 27 116 93 -13 70
-72 103 -128 72z"/>
<path d="M2060 6188 c-146 -4 -275 -12 -287 -18 -12 -5 -30 -21 -39 -35 -16
-24 -18 -72 -22 -473 -5 -480 -2 -509 44 -556 l27 -26 409 0 c444 0 443 0 487
56 20 26 21 37 21 378 0 267 -3 356 -12 368 -7 8 -31 28 -53 44 -98 70 -186
158 -206 205 -20 46 -57 73 -93 67 -6 0 -130 -5 -276 -10z m424 -220 c14 -40
8 -48 -35 -48 -16 0 -19 7 -19 53 0 28 3 63 7 76 6 22 6 22 20 -10 8 -19 20
-51 27 -71z m-205 66 c2 -2 8 -57 12 -121 4 -65 8 -119 8 -120 1 -2 57 -3 126
-3 l126 0 -3 -282 -3 -283 -334 -3 c-261 -2 -336 1 -343 10 -4 7 -8 193 -8
413 l0 400 207 -3 c115 -2 210 -5 212 -8z"/>
<path d="M1979 5709 c-24 -24 -24 -41 -1 -68 14 -17 33 -22 98 -27 115 -9 311
4 329 23 18 18 20 72 3 77 -7 3 -102 7 -211 10 -187 5 -199 4 -218 -15z"/>
<path d="M1990 5493 c-30 -39 -24 -94 11 -107 16 -5 106 -5 225 0 l199 9 9 26
c14 41 0 75 -35 88 -19 6 -106 11 -210 11 l-178 0 -21 -27z"/>
<path d="M2933 5701 c-39 -24 -53 -49 -53 -95 0 -49 34 -86 86 -93 35 -4 44
-1 71 25 36 36 44 70 28 109 -27 62 -82 85 -132 54z"/>
<path d="M7331 5698 c-34 -18 -65 -73 -57 -102 9 -38 55 -76 90 -76 45 0 96
51 96 94 0 60 -78 110 -129 84z"/>
<path d="M8056 5689 c-41 -32 -49 -54 -31 -88 18 -36 65 -71 95 -71 31 0 80
56 80 90 0 16 -11 42 -26 59 -31 38 -78 41 -118 10z"/>
<path d="M7657 5658 c-15 -11 -16 -17 -5 -45 12 -33 13 -33 83 -33 38 0 77 5
85 10 8 5 11 10 6 10 -5 0 -5 6 0 13 5 6 9 21 9 32 0 18 -8 20 -80 23 -54 2
-86 -2 -98 -10z"/>
<path d="M7698 5354 c-47 -25 -47 -33 -47 -494 1 -239 4 -482 8 -538 6 -101 7
-104 39 -133 l32 -29 425 0 425 0 38 34 37 34 3 408 3 407 -43 38 c-174 156
-225 205 -239 230 -35 62 -14 58 -351 56 -203 -1 -316 -6 -330 -13z m533 -245
c5 -154 0 -149 167 -149 l125 0 -7 -46 c-3 -26 -6 -171 -6 -323 l0 -276 -183
-3 c-100 -2 -259 -1 -354 3 l-171 7 -1 449 -2 448 68 4 c37 2 134 4 214 5
l147 2 3 -121z m218 51 c24 -22 49 -40 55 -41 6 0 2 -4 -9 -9 -32 -14 -125
-12 -125 3 0 22 21 87 28 87 4 0 27 -18 51 -40z"/>
<path d="M8056 4919 c-65 -5 -125 -14 -132 -20 -8 -6 -14 -22 -14 -35 0 -41
28 -46 172 -35 73 6 138 11 144 11 15 0 74 48 74 60 0 22 -97 30 -244 19z"/>
<path d="M8140 4758 c-205 -10 -230 -18 -230 -68 0 -16 6 -32 12 -36 7 -5 112
-7 233 -5 240 3 245 4 245 62 0 55 -22 59 -260 47z"/>
<path d="M7985 4563 c-47 -5 -75 -27 -75 -58 0 -44 16 -47 246 -43 230 3 244
6 244 51 -1 50 -7 52 -197 53 -98 1 -196 -1 -218 -3z"/>
<path d="M2141 4806 c-20 -21 -32 -43 -31 -58 0 -12 5 -230 9 -483 9 -496 12
-528 67 -638 65 -130 152 -209 320 -289 l89 -43 290 -3 c160 -2 305 0 322 3
25 4 34 12 39 33 12 53 16 62 24 57 15 -9 18 21 4 40 -8 10 -14 15 -14 10 0
-5 -5 -4 -12 3 -9 9 -89 12 -300 12 -266 0 -294 2 -351 21 -112 37 -221 120
-257 194 -53 110 -54 116 -57 630 -1 264 -2 483 -3 486 0 4 -12 18 -26 33 -37
36 -72 34 -113 -8z"/>
<path d="M2861 4704 c-38 -31 -38 -44 -5 -83 30 -36 51 -39 88 -10 35 28 35
70 0 98 -34 27 -46 26 -83 -5z"/>
<path d="M2882 4354 c-26 -18 -29 -59 -4 -73 9 -6 13 -11 8 -11 -14 0 15 -30
30 -30 14 0 54 56 54 76 0 15 -38 54 -53 54 -7 0 -23 -7 -35 -16z"/>
<path d="M2878 3983 c-26 -29 -30 -60 -14 -91 26 -50 74 -56 111 -16 32 34 32
68 0 99 -29 29 -75 33 -97 8z"/>
<path d="M7321 3964 c-27 -35 -27 -59 4 -89 35 -36 68 -32 101 10 l26 35 -19
32 c-15 26 -26 34 -55 36 -29 2 -40 -2 -57 -24z"/>
<path d="M8085 3925 c-18 -17 -25 -35 -25 -64 0 -101 -40 -200 -115 -288 -46
-54 -173 -119 -247 -127 -29 -3 -269 -7 -533 -10 l-480 -5 -22 48 c-32 68 -99
114 -172 119 -49 3 -62 0 -103 -27 -67 -43 -99 -96 -105 -173 -5 -57 -2 -69
28 -127 27 -51 43 -69 78 -88 58 -30 121 -30 187 1 46 21 104 78 104 102 0 5
123 7 297 4 164 -3 397 -5 518 -5 206 0 225 2 294 24 143 47 297 175 359 297
80 158 82 305 6 334 -36 14 -42 13 -69 -15z m-1562 -493 c35 -37 36 -84 3
-117 -27 -27 -46 -25 -83 8 -17 15 -23 32 -23 60 0 75 54 100 103 49z"/>
<path d="M3787 3607 c-54 -17 -106 -63 -128 -112 -12 -27 -27 -45 -41 -49 -13
-3 -88 -6 -168 -6 -133 0 -187 -8 -162 -24 5 -3 8 -25 6 -50 -6 -66 6 -71 145
-69 64 1 136 5 161 8 l45 6 25 -53 c33 -69 81 -98 163 -98 75 0 112 17 164 72
70 77 79 192 22 284 -21 35 -76 75 -128 92 -41 14 -54 14 -104 -1z m88 -151
c60 -25 71 -75 28 -126 -22 -27 -31 -31 -57 -26 -45 9 -66 33 -66 78 0 28 7
46 25 63 28 29 26 29 70 11z"/>
<path d="M8708 3433 c6 -2 18 -2 25 0 6 3 1 5 -13 5 -14 0 -19 -2 -12 -5z"/>
<path d="M8502 3380 c0 -14 2 -19 5 -12 2 6 2 18 0 25 -3 6 -5 1 -5 -13z"/>
<path d="M2190 3062 c-58 -18 -68 -85 -19 -126 17 -14 34 -26 39 -26 15 0 69
50 75 71 13 40 -52 95 -95 81z"/>
<path d="M8710 2993 c1 -14 44 -60 68 -72 34 -18 28 5 -12 45 -32 32 -56 44
-56 27z"/>
<path d="M7811 2926 c-33 -40 22 -85 78 -65 28 10 32 15 29 43 -3 29 -6 31
-49 34 -31 2 -50 -2 -58 -12z"/>
<path d="M1912 2895 c0 -16 2 -22 5 -12 2 9 2 23 0 30 -3 6 -5 -1 -5 -18z"/>
<path d="M2581 2644 c-25 -32 -26 -46 -7 -83 21 -39 42 -54 69 -47 29 7 50 45
49 87 -2 67 -71 93 -111 43z"/>
<path d="M2411 2608 c-10 -47 -10 -62 3 -92 13 -31 19 -36 49 -36 42 0 48 12
36 73 -11 63 -27 93 -42 78 -17 -17 -25 -13 -29 12 -3 14 -8 2 -17 -35z"/>
<path d="M7667 2606 c-36 -39 -71 -110 -64 -130 5 -13 16 -16 44 -14 34 3 39
7 50 39 17 53 20 121 6 126 -7 3 -23 -7 -36 -21z"/>
<path d="M8496 2567 c-3 -12 -8 -84 -12 -160 -4 -76 -11 -140 -16 -143 -4 -3
-8 -16 -8 -30 l0 -25 128 3 127 3 0 30 0 30 -78 3 -78 3 7 154 7 155 -35 0
c-29 0 -37 -4 -42 -23z"/>
<path d="M7845 2544 c-3 -20 -26 -82 -50 -139 -43 -101 -72 -191 -63 -200 2
-2 20 1 40 7 29 9 38 18 47 49 11 36 14 39 50 39 83 0 101 -9 113 -56 12 -45
17 -48 56 -38 31 9 28 28 -24 162 -25 64 -51 138 -57 165 l-12 47 -46 0 c-46
0 -47 -1 -54 -36z m81 -128 c13 -27 22 -51 21 -53 -6 -6 -98 10 -95 16 2 4 12
30 23 60 11 29 21 47 24 39 2 -7 14 -35 27 -62z"/>
<path d="M8118 2395 l-3 -185 143 0 142 0 0 35 0 34 -102 3 -103 3 -3 148 -3
147 -34 0 -34 0 -3 -185z"/>
<path d="M2229 2493 c-1 -5 -1 -11 0 -15 0 -5 -10 -8 -24 -8 -14 0 -25 4 -25
9 0 4 -11 6 -25 3 -47 -8 -14 -22 55 -22 66 0 94 10 69 26 -8 4 -9 3 -5 -4 4
-7 1 -12 -8 -12 -20 0 -30 17 -14 23 8 3 6 6 -4 6 -10 1 -19 -2 -19 -6z"/>
<path d="M3374 2141 c-69 -17 -161 -96 -189 -163 -18 -45 -19 -116 -3 -172 16
-55 99 -138 154 -154 150 -44 282 21 320 157 l18 63 55 -6 c31 -3 125 -10 210
-16 85 -6 158 -13 161 -15 4 -3 11 -20 14 -40 15 -78 86 -122 182 -112 108 11
174 73 174 163 -1 92 -60 176 -136 190 -58 11 -191 -1 -211 -18 -28 -24 -53
-26 -267 -29 l-199 -3 -31 45 c-37 54 -50 65 -101 89 -50 22 -110 31 -151 21z
m111 -172 c31 -27 35 -37 35 -78 0 -37 -5 -52 -23 -69 -76 -71 -177 -26 -177
79 0 33 6 47 31 70 43 40 87 39 134 -2z m827 -76 c25 -22 23 -49 -7 -78 -45
-46 -125 -24 -125 34 1 29 17 54 40 64 23 9 71 -1 92 -20z"/>
<path d="M6762 2114 c-32 -16 -66 -44 -86 -70 l-34 -44 -209 -4 c-144 -2 -229
0 -278 10 -86 16 -181 12 -223 -10 -38 -20 -72 -82 -72 -131 0 -30 3 -35 24
-35 13 0 47 8 76 17 43 14 66 15 143 7 51 -5 139 -7 197 -3 58 4 156 7 218 8
100 1 112 -1 112 -16 0 -35 48 -120 85 -150 49 -40 110 -57 188 -51 111 9 189
69 223 171 31 94 2 192 -80 264 -79 69 -190 84 -284 37z m178 -143 c56 -39 62
-103 14 -154 -78 -84 -235 46 -164 135 37 48 98 55 150 19z"/>
<path d="M2572 1964 c-28 -19 -28 -53 -1 -88 38 -48 99 -23 99 42 0 32 -29 62
-60 62 -9 0 -26 -7 -38 -16z"/>
<path d="M2390 1958 c0 -24 4 -33 13 -30 4 1 4 -10 1 -24 -5 -19 -4 -25 5 -20
16 10 14 48 -4 72 -13 17 -14 17 -15 2z"/>
<path d="M7693 1949 c9 -5 17 -16 17 -24 0 -8 4 -17 10 -20 6 -4 7 1 3 12 -9
26 -24 43 -37 43 -6 0 -3 -5 7 -11z"/>
</g>
</svg>
