<?xml version="1.0" encoding="utf-8" ?>
<svg xmlns="http://www.w3.org/2000/svg" xmlns:xlink="http://www.w3.org/1999/xlink" width="15" height="15">
	<path fill="#FCFCFD" transform="matrix(-0.0154255 0 0 0.0154255 15.7957 0)" d="M0 0L1024 0L1024 1024L0 1024L0 0Z"/>
	<path fill="#112A4A" transform="matrix(-0.0154255 0 0 0.0154255 15.7957 0)" d="M479.981 204.569C494.017 203.803 508.49 204.486 522.561 204.504L603.11 204.494L676.739 204.388C690.145 204.357 703.898 203.673 717.268 204.575C719.62 205.883 721.683 207.318 722.865 209.828C723.878 211.979 724.21 214.441 723.369 216.706C722.162 219.958 719.89 221.256 716.843 222.535C710.328 223.057 703.615 222.79 697.08 222.785L664.924 222.754L564.958 222.697L507.746 222.603C499.719 222.624 488.534 223.885 480.896 222.531C478.36 222.082 475.846 220.921 474.426 218.68C473.069 216.538 472.846 213.488 473.551 211.085C474.518 207.79 477.056 206.035 479.981 204.569Z"/>
	<path fill="#112A4A" transform="matrix(-0.0154255 0 0 0.0154255 15.7957 0)" d="M598.627 326.229C626.033 326.879 653.578 326.338 680.993 326.25L701.211 326.159C705.848 326.099 710.68 325.698 715.285 326.232C717.681 326.51 719.943 327.254 721.763 328.89Q722.085 329.181 722.376 329.504Q722.667 329.826 722.925 330.176Q723.182 330.526 723.402 330.9Q723.623 331.274 723.805 331.669Q723.986 332.063 724.128 332.474Q724.269 332.885 724.367 333.307Q724.466 333.73 724.522 334.161Q724.578 334.592 724.59 335.026Q724.605 335.503 724.572 335.98Q724.539 336.457 724.459 336.928Q724.379 337.398 724.253 337.859Q724.127 338.32 723.956 338.766Q723.784 339.212 723.57 339.639Q723.356 340.066 723.1 340.469Q722.844 340.873 722.55 341.249Q722.255 341.625 721.925 341.97Q721.634 342.277 721.316 342.558Q720.999 342.839 720.658 343.09Q720.317 343.341 719.956 343.562Q719.594 343.782 719.214 343.97Q718.835 344.158 718.44 344.311Q718.045 344.465 717.638 344.583Q717.231 344.701 716.816 344.783Q716.4 344.864 715.979 344.909C712.121 345.298 707.994 344.997 704.104 344.991L679.653 344.966L600.75 345.058Q560.709 345.114 520.669 344.767C508.365 344.733 495.761 345.57 483.497 344.944C481.344 344.834 478.922 344.637 477.091 343.377C474.893 341.864 473.229 338.154 472.898 335.583C472.654 333.691 473.184 331.974 474.446 330.539C476.571 328.12 479.972 326.95 483.093 326.599C491.554 325.646 504.385 326.505 513.359 326.506L565.501 326.512C576.527 326.515 587.613 326.776 598.627 326.229Z"/>
	<path fill="#112A4A" transform="matrix(-0.0154255 0 0 0.0154255 15.7957 0)" d="M482.538 266.217L635.287 265.945L689.054 265.876C697.135 265.881 705.499 265.375 713.542 265.835C715.832 265.966 718.131 266.345 720.123 267.55C722.165 268.785 723.574 270.644 724.122 272.975C724.73 275.558 724.125 278.271 722.652 280.458C720.874 283.097 718.362 284.131 715.341 284.679C683.075 285.307 650.697 284.377 618.411 284.53L527.287 284.651C513.017 284.651 498.671 285.087 484.413 284.736C482.436 284.687 479.505 284.747 477.824 283.643C475.531 282.138 473.478 279.551 473.086 276.783C472.71 274.124 473.672 271.612 475.359 269.578C477.425 267.086 479.401 266.479 482.538 266.217Z"/>
	<path fill="#0E9D7E" transform="matrix(-0.0154255 0 0 0.0154255 15.7957 0)" d="M705.905 98.2328L706.461 98.2067C711.34 98.0066 716.26 98.513 719.943 102.076C723.442 105.46 724.446 110.386 724.548 115.079C724.674 120.895 724.393 126.736 724.4 132.555C724.407 138.739 725.38 145.785 724.103 151.796C723.488 154.693 722.263 157.27 720.139 159.368C716.979 162.49 713.491 162.755 709.282 163.102C700.875 163.795 692.107 163.338 683.661 163.285L639.665 163.058L492.795 163.285C488.354 163.358 483.736 162.972 480.022 160.279C476.775 157.924 475.104 154.465 474.495 150.572C473.889 146.693 473.772 114.857 474.42 110.531C474.814 107.895 475.723 105.459 477.378 103.348C479.173 101.058 481.217 99.1807 484.201 98.8958C493.33 98.0239 502.674 98.4414 511.837 98.494L558.661 98.8728Q604.868 99.1139 651.073 98.6319Q678.491 98.6544 705.905 98.2328Z"/>
	<path fill="#112A4A" transform="matrix(-0.0154255 0 0 0.0154255 15.7957 0)" d="M214.548 170.246C215.826 168.013 217.23 166.152 218.986 164.277C236.445 145.636 255.232 128.017 273.29 109.94Q296.359 86.6537 319.777 63.7168C325.542 58.013 331.056 51.9975 336.96 46.4431C338.657 44.8472 342.165 41.1551 344.358 40.5297C348.814 39.2586 373.624 40.2904 380.675 40.3285L458.78 40.4355L633.865 40.4792L684.469 40.4426C695.011 40.4222 705.776 39.8452 716.252 41.0821C729.348 42.6282 742.284 48.6474 752.66 56.6695Q753.456 57.2942 754.237 57.9383Q755.018 58.5824 755.782 59.2455Q756.547 59.9086 757.295 60.5903Q758.043 61.2719 758.775 61.9717Q759.506 62.6716 760.22 63.3891Q760.933 64.1067 761.629 64.8416Q762.325 65.5765 763.003 66.3282Q763.681 67.08 764.34 67.8482Q764.999 68.6163 765.639 69.4005Q766.279 70.1846 766.899 70.9842Q767.52 71.7838 768.12 72.5984Q768.721 73.413 769.302 74.2421Q769.882 75.0712 770.442 75.9143Q771.002 76.7574 771.541 77.614Q772.08 78.4706 772.598 79.3402Q773.116 80.2098 773.612 81.0919Q774.109 81.9739 774.583 82.8679Q775.058 83.7618 775.51 84.6672Q775.963 85.5726 776.393 86.4888Q776.823 87.4049 777.231 88.3314Q777.638 89.2579 778.023 90.1941Q778.407 91.1303 778.769 92.0757Q779.13 93.0211 779.469 93.975Q779.807 94.929 780.121 95.891Q780.436 96.8529 780.727 97.8224Q781.018 98.7918 781.285 99.7681Q781.552 100.744 781.795 101.727Q782.038 102.709 782.257 103.698Q782.475 104.686 782.67 105.679Q782.864 106.672 783.034 107.67Q783.204 108.668 783.35 109.669Q783.495 110.671 783.616 111.676C785.188 124.501 784.05 138.548 783.972 151.484L783.646 223.776L783.576 355.099C783.605 387.352 783.346 419.643 783.788 451.892L820.751 451.682C839.702 451.583 859.95 448.897 874.686 463.45C890.255 478.827 887.349 499.94 887.5 519.844L904.131 519.639C915.613 519.509 924.829 519.824 933.516 528.412C941.163 535.972 942.7 544.783 942.679 555.146L942.636 654.518L942.636 682.54C942.633 688.118 943.03 694.134 942.161 699.658C941.237 705.535 937.842 711.45 933.653 715.607C921.193 727.971 903.015 725.045 886.981 724.963C886.992 738.422 886.214 752.435 887.352 765.823C903.334 765.867 920.916 762.458 933.285 775.012Q934.159 775.91 934.961 776.873Q935.763 777.836 936.489 778.858Q937.215 779.879 937.861 780.954Q938.506 782.028 939.067 783.149Q939.627 784.269 940.101 785.43Q940.574 786.591 940.956 787.784Q941.339 788.977 941.628 790.197Q941.918 791.416 942.113 792.654C943.203 799.381 942.745 806.561 942.731 813.369L942.631 846.545C942.552 879.936 943.155 913.421 942.597 946.796C942.426 956.997 938.627 965.956 931.267 973.075C925.749 978.413 917.908 981.917 910.258 982.574C902.169 983.269 893.664 982.762 885.528 982.772L838.128 982.821L682.528 982.81L415.692 982.749L334.58 982.822C318.443 982.889 302.228 983.315 286.098 982.971C272.698 982.685 259.961 977.358 250.676 967.569Q249.576 966.422 248.557 965.203Q247.537 963.984 246.601 962.698Q245.666 961.413 244.82 960.068Q243.973 958.723 243.22 957.324Q242.466 955.925 241.808 954.478Q241.15 953.031 240.592 951.543Q240.033 950.055 239.576 948.533Q239.119 947.011 238.766 945.461C236.469 935.794 237.49 924.907 237.491 915.014Q237.569 892.61 237.336 870.207C205.761 869.785 174.148 870.034 142.569 870.061C132.243 870.069 110.86 871.19 101.854 869.653C97.089 868.84 92.0112 865.548 88.6391 862.161C84.7229 858.227 81.9745 853.234 81.1972 847.705C79.8722 838.278 80.8924 827.503 80.9216 817.945L80.96 758.391L80.9156 642.74C80.8757 620.451 80.3998 598.025 80.9411 575.747C81.1374 567.67 83.8463 560.499 89.7867 554.924Q90.5561 554.216 91.3738 553.564Q92.1915 552.911 93.0533 552.319Q93.915 551.726 94.8166 551.196Q95.7182 550.666 96.655 550.201Q97.5919 549.736 98.5592 549.339Q99.5266 548.942 100.52 548.614Q101.513 548.286 102.527 548.029Q103.541 547.772 104.57 547.588C114.816 545.753 135.382 547.063 146.633 547.075C177.21 547.109 207.839 547.203 238.409 546.774L238.466 514.723C238.464 496.555 237.17 478.556 251.051 464.614C264.485 451.121 278.264 451.037 295.973 450.989L543.459 450.639L543.369 423.546C543.347 418.975 542.908 413.964 543.607 409.455C543.892 407.619 544.501 405.785 545.636 404.294C547.527 401.811 550.436 400.968 553.424 400.708C559.07 400.216 565.099 400.694 570.786 400.691L608.234 400.653L649.727 400.592C657.085 400.585 664.696 400.134 672.016 400.797C674.636 401.034 677.001 401.545 678.986 403.382C681.133 405.37 681.336 407.696 681.628 410.47C682.825 421.832 681.915 436.182 681.882 447.978L681.901 519.862L764.529 520.022C765.361 504.01 765.011 487.881 765.01 471.85L765.051 399.821L764.959 155.246L764.977 131.085C764.948 109.668 763.211 93.7588 747.136 77.8033C738.506 69.2382 726.641 62.5234 714.58 60.4761C702.63 58.4478 689.146 59.626 677.012 59.6813L609.489 59.9781L358.125 59.759C358.003 67.6656 358.047 75.5821 358.013 83.49C383.754 83.5796 409.684 84.3157 435.405 83.5914L435.459 267.023Q435.851 320.433 435.511 373.844C435.686 378.878 437.034 387.343 433.193 391.246C431.408 393.06 427.835 393.209 425.385 393.399C419.092 393.887 412.581 393.534 406.257 393.523L370.567 393.472L319.262 393.394C310.963 393.382 302.548 393.674 294.265 393.354C293.795 393.335 293.594 393.303 293.169 393.25C276.889 392.193 260.014 392.958 243.683 393.051C237.259 393.087 230.109 393.758 223.783 392.806C221.218 392.42 218.78 391.837 217.043 389.787C215.477 387.938 214.836 385.932 214.636 383.546C213.815 373.748 214.422 363.451 214.426 353.596L214.465 297.127L214.492 216.733C214.463 201.274 214.002 185.691 214.548 170.246Z"/>
	<path fill="#CCE7D2" transform="matrix(-0.0154255 0 0 0.0154255 15.7957 0)" d="M457.483 669.089L551.343 669.154L579.099 669.383C582.069 669.408 585.553 668.853 588.439 669.237C589.098 669.325 589.674 669.592 590.275 669.855C591.325 671.305 591.055 672.214 591.071 673.974C590.708 679.449 590.868 684.966 590.899 690.451C546.432 690.433 501.932 689.98 457.469 690.468L457.483 669.089Z"/>
	<path fill="#97C6A7" transform="matrix(-0.0154255 0 0 0.0154255 15.7957 0)" d="M836.405 470.237L840.679 470.16C848.539 470.065 855.422 471.374 861.195 477.252C870.959 487.193 868.327 506.616 868.333 519.617L815.875 519.616L784.073 519.55L783.966 470.448C801.431 470.061 818.931 470.542 836.405 470.237Z"/>
	<path fill="#FB9851" transform="matrix(-0.0154255 0 0 0.0154255 15.7957 0)" d="M338.87 72.4342C339.454 73.0567 339.405 73.8247 339.437 74.655C339.875 85.9846 339.309 97.5201 339.352 108.876C339.39 118.607 340.721 135.611 338.868 144.691C337.899 149.44 335.329 153.847 331.944 157.285C329.153 160.119 325.762 162.234 321.878 163.168C312.962 165.311 302.417 164.202 293.242 164.202L248.102 164.121C247.909 163.881 247.857 163.556 247.751 163.266Q292.343 116.88 338.87 72.4342Z"/>
	<path fill="#97C6A7" transform="matrix(-0.0154255 0 0 0.0154255 15.7957 0)" d="M665.003 724.588L867.968 724.605L868.02 749.363C868.024 754.786 868.395 760.621 867.477 765.97C841.472 766.856 815.232 766.21 789.196 766.284C747.807 766.401 706.36 766.81 664.976 766.228L665.003 724.588Z"/>
	<path fill="#FA7F37" transform="matrix(-0.0154255 0 0 0.0154255 15.7957 0)" d="M856.732 538.626L895.317 538.575C902.184 538.565 909.166 538.293 916.02 538.615C918.672 540.192 921.907 542.119 922.849 545.264C924.399 550.441 923.56 590.706 923.578 598.655L923.688 662.977C923.688 674.701 924.056 686.573 923.48 698.277C921.587 701.43 919.892 704.197 916.07 705.053C910.687 706.257 904.301 705.639 898.773 705.635C887.211 705.625 875.585 705.331 864.031 705.668Q863.734 678.447 863.951 651.224C870.953 651.241 885.958 653.289 891.149 648.507C892.674 647.103 893.395 645.132 893.487 643.091C893.575 641.127 893.014 639.271 891.552 637.904C887.111 633.752 869.644 635.558 863.598 635.638C864.274 627.19 863.445 618.522 863.991 610C870.277 609.938 885.807 612.049 890.452 608.132C892.301 606.572 893.102 604.305 893.242 601.944C893.344 600.236 892.9 598.61 891.682 597.366C887.218 592.805 870.27 594.541 864.016 594.606Q863.796 566.811 863.984 539.016C861.528 539.018 859.176 538.933 856.732 538.626Z"/>
	<path fill="#FB9851" transform="matrix(-0.0154255 0 0 0.0154255 15.7957 0)" d="M864.031 705.668C845.279 706.196 826.41 705.862 807.649 705.837L710.319 705.775L648.749 705.799C638.213 705.778 626.992 706.479 616.537 705.325C614.79 705.132 613.263 704.143 612.017 702.943C609.978 700.98 610.038 697.705 609.952 695.039C609.14 669.873 609.974 644.424 609.822 619.221Q609.685 595.996 609.808 572.77C609.834 564.93 609.463 556.836 610.028 549.03C610.208 546.532 610.358 543.72 612.21 541.858C614.169 539.89 616.025 539.197 618.731 538.951C627.778 538.128 637.399 538.894 646.503 538.884L703.198 538.745C754.341 538.687 805.599 537.69 856.732 538.626C859.176 538.933 861.528 539.018 863.984 539.016Q863.796 566.811 864.016 594.606C870.27 594.541 887.218 592.805 891.682 597.366C892.9 598.61 893.344 600.236 893.242 601.944C893.102 604.305 892.301 606.572 890.452 608.132C885.807 612.049 870.277 609.938 863.991 610C863.445 618.522 864.274 627.19 863.598 635.638C869.644 635.558 887.111 633.752 891.552 637.904C893.014 639.271 893.575 641.127 893.487 643.091C893.395 645.132 892.674 647.103 891.149 648.507C885.958 653.289 870.953 651.241 863.951 651.224Q863.734 678.446 864.031 705.668Z"/>
	<path fill="#FCFCFD" transform="matrix(-0.0154255 0 0 0.0154255 15.7957 0)" d="M864.016 594.606C870.27 594.541 887.218 592.805 891.682 597.366C892.9 598.61 893.344 600.236 893.242 601.944C893.102 604.305 892.301 606.572 890.452 608.132C885.807 612.049 870.277 609.938 863.991 610L777.114 609.846C765.249 609.831 750.721 610.85 739.225 609.91C737.162 609.742 735.764 609.398 734.157 608.068C732.504 606.699 731.213 604.557 731.134 602.378C731.072 600.673 731.683 599.172 732.841 597.931C734.821 595.81 737.874 594.92 740.676 594.63C744.541 594.228 748.605 594.623 752.498 594.627L777.582 594.595L864.016 594.606Z"/>
	<path fill="#FCFCFD" transform="matrix(-0.0154255 0 0 0.0154255 15.7957 0)" d="M737.059 635.564C779.174 634.723 821.471 635.491 863.598 635.638C869.644 635.558 887.111 633.752 891.552 637.904C893.014 639.271 893.575 641.127 893.487 643.091C893.395 645.132 892.674 647.103 891.149 648.507C885.958 653.289 870.953 651.241 863.951 651.224C835.781 651.639 807.566 651.19 779.391 651.149L753.47 651.103C748.397 651.092 742.89 651.459 737.888 650.615C735.714 650.249 733.469 649.05 732.247 647.161C731.299 645.695 731.141 644.039 731.501 642.356C732.224 638.977 734.269 637.334 737.059 635.564Z"/>
	<path fill="#FCFCFD" transform="matrix(-0.0154255 0 0 0.0154255 15.7957 0)" d="M667.229 587.578C674.823 586.928 682.193 587.831 688.719 592.034C696.187 596.845 701.807 605.535 703.707 614.154Q703.885 614.95 704.022 615.754Q704.16 616.557 704.257 617.367Q704.353 618.177 704.409 618.99Q704.465 619.804 704.48 620.62Q704.495 621.435 704.469 622.25Q704.442 623.065 704.375 623.878Q704.307 624.69 704.199 625.499Q704.091 626.307 703.942 627.109Q703.793 627.911 703.604 628.704Q703.415 629.497 703.186 630.28Q702.958 631.063 702.69 631.833Q702.422 632.603 702.115 633.359Q701.809 634.115 701.464 634.854Q701.12 635.593 700.739 636.314Q700.358 637.035 699.941 637.736Q699.525 638.437 699.073 639.116C693.786 647.196 685.859 652.084 676.498 654.006C668.671 654.879 661.56 653.906 654.746 649.773Q654.004 649.32 653.286 648.831Q652.568 648.342 651.874 647.819Q651.18 647.295 650.513 646.738Q649.846 646.181 649.208 645.592Q648.569 645.003 647.96 644.383Q647.351 643.763 646.773 643.114Q646.195 642.465 645.649 641.789Q645.104 641.112 644.592 640.41Q644.081 639.707 643.604 638.981Q643.128 638.254 642.688 637.505Q642.248 636.755 641.845 635.985Q641.442 635.215 641.078 634.426Q640.713 633.638 640.388 632.832Q640.063 632.026 639.777 631.205Q639.492 630.384 639.247 629.551Q639.002 628.717 638.799 627.872C636.871 619.533 638.73 610.803 643.255 603.612C648.683 594.985 657.405 589.732 667.229 587.578Z"/>
	<path fill="#FB9851" transform="matrix(-0.0154255 0 0 0.0154255 15.7957 0)" d="M666.842 601.569C671.529 601.361 675.822 601.273 680.214 603.269Q680.657 603.469 681.089 603.691Q681.521 603.913 681.941 604.157Q682.361 604.401 682.768 604.667Q683.175 604.932 683.568 605.218Q683.96 605.504 684.338 605.809Q684.716 606.115 685.077 606.439Q685.439 606.764 685.783 607.107Q686.127 607.449 686.454 607.809Q686.78 608.169 687.088 608.545Q687.395 608.921 687.683 609.313Q687.971 609.704 688.238 610.11Q688.505 610.516 688.751 610.934Q688.998 611.353 689.222 611.784Q689.446 612.215 689.648 612.657Q689.85 613.099 690.029 613.55Q690.208 614.002 690.364 614.462Q690.523 614.93 690.659 615.405Q690.794 615.881 690.906 616.363Q691.017 616.844 691.104 617.331Q691.192 617.818 691.254 618.308Q691.316 618.799 691.354 619.292Q691.392 619.785 691.404 620.279Q691.417 620.773 691.405 621.268Q691.393 621.762 691.356 622.255Q691.318 622.748 691.256 623.239Q691.195 623.729 691.108 624.216Q691.021 624.703 690.911 625.185Q690.8 625.666 690.664 626.142Q690.529 626.618 690.37 627.086Q690.212 627.554 690.029 628.014Q689.847 628.473 689.642 628.923Q689.437 629.373 689.209 629.812C686.444 635.108 682.103 637.816 676.638 639.663C671.987 640.375 667.174 640.214 662.844 638.216Q662.398 638.012 661.963 637.787Q661.528 637.561 661.105 637.313Q660.682 637.065 660.273 636.796Q659.863 636.528 659.467 636.238Q659.072 635.949 658.691 635.64Q658.311 635.331 657.947 635.003Q657.582 634.675 657.235 634.329Q656.888 633.983 656.559 633.62Q656.23 633.256 655.92 632.877Q655.61 632.497 655.319 632.103Q655.029 631.708 654.759 631.299Q654.489 630.89 654.24 630.468Q653.991 630.046 653.763 629.612Q653.536 629.177 653.331 628.732Q653.127 628.287 652.945 627.832Q652.763 627.377 652.604 626.913C650.897 621.893 651.479 616.366 653.902 611.678C656.722 606.223 661.115 603.288 666.842 601.569Z"/>
	<path fill="#E65E56" transform="matrix(-0.0154255 0 0 0.0154255 15.7957 0)" d="M358.013 83.49C383.754 83.5796 409.684 84.3157 435.405 83.5914L435.459 267.023Q435.851 320.433 435.511 373.844C429.313 372.29 420.881 373.276 414.446 373.313L380.299 373.455L233.613 373.446Q232.459 281.138 232.938 188.828L232.891 182.832L291.331 182.776C301.605 182.751 313.145 183.739 323.245 181.877Q325.365 181.48 327.43 180.859Q329.495 180.237 331.482 179.398Q333.469 178.559 335.355 177.512Q337.24 176.466 339.003 175.223C350.117 167.517 355.541 156.913 357.926 143.871C358.177 123.753 357.911 103.612 358.013 83.49Z"/>
	<path fill="#CB413F" transform="matrix(-0.0154255 0 0 0.0154255 15.7957 0)" d="M357.926 143.871C358.538 155.8 357.366 166.112 349.005 175.371Q348.332 176.123 347.622 176.84Q346.911 177.558 346.166 178.238Q345.42 178.919 344.642 179.561Q343.863 180.203 343.052 180.805Q342.242 181.407 341.403 181.967Q340.563 182.527 339.696 183.045Q338.83 183.562 337.938 184.035Q337.046 184.508 336.132 184.935Q335.217 185.363 334.283 185.744Q333.348 186.124 332.395 186.458Q331.442 186.791 330.474 187.075Q329.505 187.36 328.524 187.596Q327.542 187.831 326.55 188.017Q325.558 188.202 324.558 188.338Q323.557 188.473 322.552 188.558Q321.546 188.643 320.537 188.677C308.266 189.212 295.786 188.523 283.482 188.6C266.646 188.705 249.77 189.474 232.938 188.828L232.891 182.832L291.331 182.776C301.605 182.751 313.145 183.739 323.245 181.877Q325.365 181.48 327.43 180.859Q329.495 180.237 331.482 179.398Q333.469 178.559 335.355 177.512Q337.24 176.466 339.003 175.223C350.117 167.517 355.541 156.913 357.926 143.871Z"/>
	<path fill="#CB413F" transform="matrix(-0.0154255 0 0 0.0154255 15.7957 0)" d="M394.003 224.59C396.496 225.135 399.12 226.952 400.478 229.137C401.916 231.449 401.978 234.372 401.234 236.931Q401.025 237.629 400.745 238.303Q400.466 238.976 400.118 239.617Q399.771 240.258 399.36 240.86Q398.949 241.462 398.479 242.019Q398.008 242.576 397.483 243.081Q396.958 243.587 396.384 244.036Q395.81 244.485 395.193 244.873Q394.576 245.261 393.922 245.584C387.931 248.491 379.568 247.072 373.045 247.725Q373.149 267.865 372.741 288.001C372.619 295.482 373.31 303.869 371.499 311.108C369.521 319.013 365.146 326.733 359.358 332.465C350.488 341.249 338.304 346.719 325.755 346.577C314.041 346.445 303.389 341.967 295.229 333.52C291.792 329.962 287.869 325.357 286.751 320.447C288.147 322.125 289.54 323.841 291.062 325.407C298.622 333.189 308.84 337.3 319.637 337.487C331.505 337.693 344.16 332.786 352.639 324.45C367.198 310.135 365.291 290.881 365.216 272.136L365.36 240.345C373.138 240.186 383.228 241 389.44 235.515C392.615 232.71 393.826 228.705 394.003 224.59Z"/>
	<path fill="#112A4A" transform="matrix(-0.0154255 0 0 0.0154255 15.7957 0)" d="M320.235 275.654C320.456 263.919 318.26 229.947 321.759 221.101C323.159 217.562 326.345 215.051 329.819 213.689C335.481 211.469 371.842 211.716 379.458 212.309C381.986 212.506 384.876 212.832 387.157 213.97C391.299 216.037 392.633 220.536 394.003 224.59C393.826 228.705 392.615 232.71 389.44 235.515C383.228 241 373.138 240.186 365.36 240.345L365.216 272.136C365.291 290.881 367.198 310.135 352.639 324.45C344.16 332.786 331.505 337.693 319.637 337.487C308.84 337.3 298.622 333.189 291.062 325.407C289.54 323.841 288.147 322.125 286.751 320.447C281.78 312.605 278.452 304.371 278.085 294.981C277.882 289.813 278.792 284.578 282.544 280.755C289.718 273.448 310.397 275.7 320.235 275.654Z"/>
	<path fill="#FCFCFD" transform="matrix(-0.0154255 0 0 0.0154255 15.7957 0)" d="M334.923 215.625C343.428 215.252 352.061 215.494 360.579 215.46C367.231 215.432 374.262 214.957 380.87 215.64C382.655 215.825 384.659 216.11 386.139 217.212C388.772 219.171 390.14 222.871 390.426 226.049C390.594 227.91 389.927 229.592 388.641 230.92C386.962 232.655 384.574 233.715 382.24 234.216C377.103 235.321 371.097 234.767 365.824 234.775L339.265 234.785C339.313 244.734 339.987 291.207 338.102 296.915C336.506 301.748 332.056 305.969 327.51 308.068C323.883 309.742 319.68 310.21 315.893 308.784C312.67 307.571 309.412 305.888 307.905 302.657C307.749 301.362 307.946 300.745 308.499 299.608C309.166 298.235 310.196 296.51 309.439 294.976C308.917 293.918 307.777 293.053 306.699 292.643C304.85 291.94 300.414 292.076 298.793 293.266C297.764 294.021 297.302 295.014 297.232 296.257C297.009 300.192 301.07 306.81 303.607 309.673C307.718 314.312 313.852 316.98 320.023 317.104C326.848 317.241 333.685 314.102 338.45 309.292C348.327 299.325 345.583 281.895 345.538 268.75L345.604 241.053L362.161 240.941C362.418 250.834 362.087 260.814 362.03 270.715C361.973 280.721 363.186 293.256 360.688 302.832C359.14 308.771 355.825 314.18 351.717 318.693Q351 319.489 350.245 320.247Q349.489 321.006 348.696 321.726Q347.903 322.446 347.075 323.125Q346.246 323.803 345.385 324.44Q344.524 325.076 343.632 325.669Q342.74 326.261 341.819 326.808Q340.898 327.355 339.951 327.855Q339.004 328.355 338.033 328.806Q337.062 329.258 336.069 329.66Q335.077 330.062 334.066 330.414Q333.054 330.766 332.026 331.067Q330.998 331.367 329.957 331.616Q328.915 331.864 327.862 332.06Q326.809 332.256 325.748 332.399Q324.687 332.541 323.619 332.63Q322.552 332.72 321.482 332.755C310.956 333.174 301.292 329.327 293.663 322.11C285.529 314.416 281.704 304.899 281.549 293.756C281.491 289.51 282.231 285.367 285.38 282.291C286.782 280.922 288.255 280.044 290.142 279.525C297.739 277.435 314.856 278.642 323.508 278.565L323.262 245.482C323.211 239.199 322.645 232.325 323.527 226.106C323.786 224.279 324.444 222.71 325.436 221.163C327.761 217.536 330.849 216.42 334.923 215.625Z"/>
	<path fill="#CCE7D2" transform="matrix(-0.0154255 0 0 0.0154255 15.7957 0)" d="M562.48 419.949L662.517 419.884Q663.126 469.94 663.045 519.999C652.018 519.859 621.936 518.599 613.07 520.83C608.531 521.972 604.218 524.415 600.796 527.593C596.59 531.497 593.217 537.253 591.968 542.865C589.785 552.681 591 567.387 591.004 577.778C591.014 601.846 591.395 625.982 590.869 650.042L457.434 649.923C456.905 631.733 457.301 613.416 457.264 595.212C457.247 587.149 458.023 578.244 456.568 570.318C455.681 565.483 453.866 561.605 451.153 557.537Q450.248 556.456 449.259 555.452C445.341 551.538 440.524 548.783 435.043 547.808C428.227 546.596 420.77 547.1 413.856 547.102L383.765 547.055L258.734 546.976C258.345 535.56 258.525 524.081 258.489 512.657C258.468 505.707 257.81 498.047 258.812 491.189Q259.003 489.834 259.333 488.506Q259.662 487.178 260.128 485.891Q260.593 484.605 261.19 483.373Q261.786 482.141 262.506 480.978C265.435 476.24 271.572 471.691 276.97 470.432C284.17 468.753 292.945 469.661 300.35 469.683Q317.518 469.755 334.686 469.631L507.12 469.619C515.721 469.618 550.076 470.652 556.505 468.972C559.514 468.186 560.914 465.666 562.438 463.19L562.48 419.949Z"/>
	<path fill="#E65E56" transform="matrix(-0.0154255 0 0 0.0154255 15.7957 0)" d="M613.936 785.905C649.452 784.802 685.108 785.762 720.637 785.77L865.9 785.334L896.603 785.366C901.797 785.377 907.497 784.93 912.617 785.733C915.173 786.133 918.213 786.964 920.062 788.901C922.176 791.118 923.1 794.31 923.406 797.286C924.155 804.577 923.472 812.598 923.43 819.95Q923.334 840.632 923.465 861.313L923.475 921.738C923.455 930.569 924.073 939.706 923.484 948.5C923.187 952.935 921.779 956.275 918.364 959.218C916.168 961.111 913.853 962.195 911.011 962.741C904.168 964.054 896.012 963.211 889.015 963.178C881.354 963.141 873.635 963.407 865.982 963.189C840.84 962.792 815.637 963.156 790.489 963.152L610.419 963.351L610.192 851.442C610.142 831.186 609.165 810.386 610.499 790.186C611.517 788.634 612.709 787.294 613.936 785.905Z"/>
	<path fill="#FCFCFD" transform="matrix(-0.0154255 0 0 0.0154255 15.7957 0)" d="M865.893 863.295L775.388 863.288Q764.906 863.175 754.424 863.335C749.845 863.417 744.979 863.84 740.428 863.382C738.15 863.153 735.642 862.585 733.856 861.06C732.62 860.005 732.004 858.601 731.886 856.989C731.718 854.688 732.219 852.525 733.823 850.805C735.76 848.726 738.669 847.879 741.415 847.611C745.725 847.19 750.361 847.611 754.708 847.664Q767.078 847.872 779.45 847.792L877.786 847.876C882.374 847.863 891.043 846.548 894.542 850.129C896.014 851.636 896.811 854.15 896.721 856.234C896.65 857.852 895.997 859.285 894.795 860.384C889.406 865.314 873.05 863.211 865.893 863.295Z"/>
	<path fill="#FCFCFD" transform="matrix(-0.0154255 0 0 0.0154255 15.7957 0)" d="M886.08 889.438C889.135 889.63 892.325 889.671 894.491 892.163C895.876 893.755 897.41 896.59 897.243 898.769C897.111 900.494 896.297 901.746 894.962 902.792C889.139 907.354 873.38 905.527 865.886 905.403L776.417 905.439C765.919 905.407 751.57 906.447 741.5 905.39C738.614 905.087 735.483 904.214 733.405 902.066Q733.197 901.849 733.01 901.613Q732.824 901.376 732.662 901.122Q732.501 900.869 732.365 900.6Q732.229 900.332 732.12 900.051Q732.011 899.77 731.931 899.48Q731.851 899.19 731.799 898.894Q731.748 898.597 731.727 898.297Q731.705 897.997 731.713 897.696C731.752 895.434 732.929 893.424 734.53 891.89C736.173 890.315 737.799 889.954 740.003 889.725C745.299 889.176 750.897 889.502 756.231 889.499L786.517 889.514L886.08 889.438Z"/>
	<path fill="#FCFCFD" transform="matrix(-0.0154255 0 0 0.0154255 15.7957 0)" d="M666.652 840.568C674.868 839.942 682.083 841.134 689.171 845.493C696.737 850.146 702.905 857.97 704.871 866.713Q705.054 867.544 705.195 868.383Q705.337 869.222 705.436 870.067Q705.535 870.912 705.591 871.76Q705.648 872.609 705.661 873.46Q705.675 874.311 705.647 875.161Q705.618 876.011 705.546 876.859Q705.475 877.707 705.361 878.55Q705.247 879.393 705.091 880.23Q704.935 881.066 704.737 881.893Q704.54 882.721 704.301 883.537Q704.062 884.354 703.782 885.157Q703.502 885.961 703.183 886.749Q702.863 887.538 702.504 888.309Q702.146 889.081 701.749 889.833Q701.352 890.586 700.917 891.317Q700.483 892.049 700.013 892.758C694.395 901.397 686.246 906.335 676.287 908.413C668.48 908.868 661.787 908.001 654.95 904.008Q654.198 903.571 653.469 903.098Q652.74 902.624 652.035 902.115Q651.33 901.606 650.651 901.063Q649.973 900.52 649.322 899.944Q648.67 899.368 648.049 898.76Q647.427 898.152 646.836 897.515Q646.245 896.877 645.686 896.211Q645.128 895.545 644.603 894.852Q644.078 894.159 643.588 893.441Q643.098 892.722 642.644 891.981Q642.19 891.239 641.773 890.476Q641.357 889.713 640.978 888.931Q640.6 888.148 640.261 887.347Q639.922 886.547 639.623 885.73Q639.324 884.914 639.065 884.084Q638.807 883.254 638.59 882.412Q638.389 881.623 638.227 880.826Q638.066 880.028 637.944 879.223Q637.822 878.418 637.741 877.608Q637.659 876.798 637.618 875.986Q637.577 875.173 637.577 874.359Q637.576 873.545 637.616 872.732Q637.656 871.919 637.736 871.109Q637.817 870.299 637.937 869.494Q638.058 868.689 638.218 867.891Q638.378 867.093 638.578 866.304Q638.778 865.515 639.017 864.737Q639.256 863.959 639.534 863.194Q639.811 862.429 640.126 861.678Q640.441 860.928 640.793 860.194Q641.145 859.46 641.534 858.745Q641.922 858.029 642.345 857.334C647.816 848.267 656.548 843.031 666.652 840.568Z"/>
	<path fill="#E65E56" transform="matrix(-0.0154255 0 0 0.0154255 15.7957 0)" d="M670.159 854.594C674.715 854.295 678.833 854.976 682.703 857.549C687.186 860.53 690.202 865.393 691.218 870.649Q691.313 871.136 691.383 871.627Q691.453 872.119 691.498 872.613Q691.543 873.107 691.563 873.603Q691.583 874.099 691.577 874.595Q691.572 875.091 691.542 875.586Q691.511 876.081 691.456 876.575Q691.401 877.068 691.32 877.557Q691.24 878.047 691.135 878.532Q691.03 879.017 690.9 879.496Q690.771 879.975 690.617 880.447Q690.464 880.919 690.286 881.382Q690.109 881.846 689.909 882.3Q689.708 882.753 689.485 883.196Q689.262 883.64 689.016 884.071Q688.771 884.502 688.504 884.92Q688.237 885.339 687.949 885.743C684.416 890.808 679.575 893.346 673.622 894.369C669.556 894.683 665.15 893.483 661.695 891.343Q661.266 891.077 660.851 890.789Q660.436 890.502 660.036 890.195Q659.636 889.887 659.251 889.56Q658.867 889.233 658.499 888.887Q658.131 888.541 657.781 888.178Q657.431 887.814 657.1 887.434Q656.768 887.053 656.455 886.657Q656.143 886.26 655.851 885.849Q655.558 885.437 655.287 885.012Q655.015 884.587 654.765 884.148Q654.515 883.71 654.287 883.259Q654.059 882.809 653.854 882.348Q653.648 881.887 653.466 881.416Q653.283 880.946 653.125 880.467Q652.966 879.987 652.831 879.501Q652.696 879.014 652.586 878.522C651.464 873.486 652.297 867.93 655.106 863.571C658.639 858.089 664.008 855.793 670.159 854.594Z"/>
	<path fill="#CB413F" transform="matrix(-0.0154255 0 0 0.0154255 15.7957 0)" d="M865.9 785.334L896.603 785.366C901.797 785.377 907.497 784.93 912.617 785.733C915.173 786.133 918.213 786.964 920.062 788.901C922.176 791.118 923.1 794.31 923.406 797.286C924.155 804.577 923.472 812.598 923.43 819.95Q923.334 840.632 923.465 861.313L923.475 921.738C923.455 930.569 924.073 939.706 923.484 948.5C923.187 952.935 921.779 956.275 918.364 959.218C916.168 961.111 913.853 962.195 911.011 962.741C904.168 964.054 896.012 963.211 889.015 963.178C881.354 963.141 873.635 963.407 865.982 963.189C865.612 944.008 865.277 924.573 865.886 905.403C873.38 905.527 889.139 907.354 894.962 902.792C896.297 901.746 897.111 900.494 897.243 898.769C897.41 896.59 895.876 893.755 894.491 892.163C892.325 889.671 889.135 889.63 886.08 889.438C879.749 888.195 872.19 888.954 865.741 889.158Q865.241 876.223 865.893 863.295C873.05 863.211 889.406 865.314 894.795 860.384C895.997 859.285 896.65 857.852 896.721 856.234C896.811 854.15 896.014 851.636 894.542 850.129C891.043 846.548 882.374 847.863 877.786 847.876C874.04 847.002 869.778 847.352 865.929 847.353C865.429 826.703 865.801 805.991 865.9 785.334Z"/>
	<path fill="#97C6A7" transform="matrix(-0.0154255 0 0 0.0154255 15.7957 0)" d="M591.071 673.974L591.133 674.57C592.557 689.506 587.217 707.978 600.647 718.933C611.345 727.66 632.639 724.403 645.95 724.709L645.912 766.418C636.419 766.334 617.156 764.966 609.124 766.986C605.517 767.893 602.282 769.596 599.596 772.176C592.799 778.704 591.485 786.217 591.474 795.171L591.917 963.384L376.776 963.128L312.727 963.333C302.453 963.343 290.937 964.32 280.83 962.783C274.262 961.785 268.501 958.067 263.947 953.36C260.63 949.931 258.656 945.409 257.726 940.766C256.126 932.772 257.011 923.526 257.052 915.359Q257.259 892.836 257.162 870.312L379.457 870.472L407.195 870.462C414.254 870.493 421.671 871.011 428.64 869.723C435.979 868.366 441.984 864.824 447.259 859.6C456.618 850.33 457.399 840.961 457.371 828.407C457.267 782.462 458.324 736.397 457.469 690.468C501.932 689.98 546.432 690.433 590.899 690.451C590.868 684.966 590.708 679.449 591.071 673.974Z"/>
	<defs>
		<linearGradient id="gradient_0" gradientUnits="userSpaceOnUse" x1="424.17783" y1="854.02319" x2="110.84233" y2="561.56226">
			<stop offset="0" stop-color="#186696"/>
			<stop offset="1" stop-color="#2884BA"/>
		</linearGradient>
	</defs>
	<path fill="url(#gradient_0)" transform="matrix(-0.0154255 0 0 0.0154255 15.7957 0)" d="M107.027 566.543C113.083 566.264 119.321 566.711 125.4 566.764Q143.966 566.919 162.533 566.814L308.632 566.712L391.577 566.539C399.633 566.492 407.695 566.653 415.747 566.579C420.489 566.535 425.558 565.895 430.263 566.403C432.47 566.642 434.65 567.442 435.985 569.311C437.215 571.031 437.654 573.292 437.691 575.37Q438.559 669.923 437.818 764.477L437.882 812.773C437.912 821.028 438.903 830.812 437.343 838.907C436.452 843.53 433.254 846.532 429.571 849.131C427.482 850.024 425.698 850.488 423.416 850.583C401.785 851.49 379.765 850.649 358.098 850.597L241.953 850.551L148.128 850.514L119.189 850.498C115.165 850.504 110.917 850.948 106.927 850.674C104.312 850.494 102.791 849.974 100.85 848.216C99.8958 846.35 100.112 843.121 100.095 841.02L100.297 632.973C100.324 623.313 99.0936 578.141 100.818 572.81C101.872 569.55 104.125 568.076 107.027 566.543Z"/>
	<path fill="#112A4A" transform="matrix(-0.0154255 0 0 0.0154255 15.7957 0)" d="M326.604 721.096Q328.494 723.723 330.518 726.247C322.264 734.416 314.367 742.881 306.365 751.292C300.713 757.234 294.872 762.89 289.802 769.362C284.378 765.333 273.735 756.252 272.277 749.572C277 753.933 281.341 758.714 285.584 763.535C299.803 749.985 313.288 735.529 326.604 721.096Z"/>
	<path fill="#112A4A" transform="matrix(-0.0154255 0 0 0.0154255 15.7957 0)" d="M269.1 650.488C270.236 649.982 271.044 649.871 272.283 649.822L272.874 650.363C273.259 669.322 272.934 688.31 273.019 707.274C273.068 718.243 273.934 729.689 273.26 740.612C268.065 745.603 263.373 751.058 258.455 756.314C251.77 763.458 244.941 770.461 238.505 777.833C230.806 770.187 187.261 728.203 186.579 721.532C194.437 728.821 201.569 737.236 208.858 745.1C217.351 754.263 226.182 763.209 234.352 772.659C246.513 761.138 257.478 748.414 269.032 736.302Q268.774 693.394 269.1 650.488Z"/>
	<path fill="#FCFCFD" transform="matrix(-0.0154255 0 0 0.0154255 15.7957 0)" d="M296.09 690.262C304.835 697.342 319.638 712.293 326.604 721.096C313.288 735.529 299.803 749.985 285.584 763.535C281.341 758.714 277 753.933 272.277 749.572C271.468 748.57 271.757 749.142 271.438 747.842C274.241 742.006 290.471 727.555 295.954 721.29C290.885 715.903 285.947 710.642 280.371 705.771C285.233 700.302 290.807 695.331 296.09 690.262Z"/>
	<path fill="#FCFCFD" transform="matrix(-0.0154255 0 0 0.0154255 15.7957 0)" d="M243.358 646.48C251.503 646.446 260.579 645.528 268.584 646.692C269.402 647.835 269.15 649.153 269.1 650.488Q268.774 693.396 269.032 736.302C257.478 748.414 246.513 761.138 234.352 772.659C226.182 763.209 217.351 754.263 208.858 745.1C201.569 737.236 194.437 728.821 186.579 721.532L185.826 721.333C186.184 718.209 211.134 694.643 215.252 690.559C220.989 695.093 227.194 699.536 232.405 704.657L232.396 705.654L232.567 706.081C233.103 707.389 233.64 708.33 234.519 709.434C234.631 711.736 232.812 713.309 231.329 714.946Q227.484 719.141 223.578 723.279C227.809 727.765 232.77 731.839 237.327 736.01C239.232 734.126 241.064 732.149 242.926 730.221L243.358 646.48Z"/>
	<path fill="#112A4A" transform="matrix(-0.0154255 0 0 0.0154255 15.7957 0)" d="M232.396 705.654L232.567 706.081C233.103 707.389 233.64 708.33 234.519 709.434C234.631 711.736 232.812 713.309 231.329 714.946Q227.484 719.141 223.578 723.279L219.252 719.728L232.396 705.654Z"/>
</svg>
