<svg xmlns="http://www.w3.org/2000/svg" width="px" height="px" viewBox="0 0 20 20"><defs><clipPath id="a"><path d="M6 6h8v8H6Zm0 0"/></clipPath><clipPath id="b"><path d="M1.672 1.68h16.683v16.683H1.675Zm9.488 8.343a1.146 1.146 0 0 0-2.293 0c0 .63.516 1.137 1.149 1.137a1.14 1.14 0 0 0 1.144-1.137"/></clipPath><clipPath id="c"><path d="M-2.664-2.664h25.328v25.328H-2.664ZM18.492 10A8.49 8.49 0 0 0 10 1.508 8.49 8.49 0 0 0 1.508 10 8.49 8.49 0 0 0 10 18.492 8.49 8.49 0 0 0 18.492 10"/></clipPath></defs><path style="stroke:none;fill-rule:nonzero;fill:#de8b20;fill-opacity:1" d="M6.586 5.29a1.302 1.302 0 1 1-2.606 0 1.3 1.3 0 0 1 1.301-1.302c.723 0 1.305.582 1.305 1.301"/><path style="stroke:none;fill-rule:nonzero;fill:#de8b20;fill-opacity:1" d="m5.441 6.008.551-.567 2.254 2.207-.55.563Zm9.297.535a1.304 1.304 0 0 1-.043-2.605 1.304 1.304 0 0 1 .043 2.605"/><path style="stroke:none;fill-rule:nonzero;fill:#de8b20;fill-opacity:1" d="m14.004 5.41.574.543-2.172 2.29-.57-.544Zm-.633 9.242a1.304 1.304 0 0 1 2.605-.082 1.31 1.31 0 0 1-1.265 1.344 1.3 1.3 0 0 1-1.34-1.262"/><path style="stroke:none;fill-rule:nonzero;fill:#de8b20;fill-opacity:1" d="m14.492 13.898-.535.582-2.32-2.136.535-.582Zm-9.207-.441a1.304 1.304 0 0 1 .035 2.605 1.304 1.304 0 0 1-.035-2.605"/><path style="stroke:none;fill-rule:nonzero;fill:#de8b20;fill-opacity:1" d="m6.016 14.59-.57-.543 2.175-2.281.57.543Zm0 0"/><g clip-path="url(#a)"><g clip-path="url(#b)"><path style="stroke:none;fill-rule:nonzero;fill:#de8b20;fill-opacity:1" d="M13.527 10.023a3.507 3.507 0 0 1-3.511 3.512A3.51 3.51 0 0 1 6.5 10.023a3.513 3.513 0 1 1 7.027 0"/></g></g><g clip-path="url(#c)"><path style="stroke:none;fill-rule:nonzero;fill:#333;fill-opacity:1" d="M19.297 10c0 5.133-4.164 9.297-9.297 9.297S.703 15.133.703 10 4.867.703 10 .703 19.297 4.867 19.297 10"/></g><path style="stroke:none;fill-rule:nonzero;fill:#c0f;fill-opacity:1" d="M5.18 16.05a1.294 1.294 0 0 1-1.157-1.062 1.6 1.6 0 0 1 0-.468c.055-.262.184-.504.375-.692.176-.176.407-.293.653-.34a1 1 0 0 1 .289-.023 1.3 1.3 0 0 1 .453.094c.043.015.082.03.086.03s.191-.19.414-.425.457-.48.52-.543c.285-.3.417-.441.417-.45a1 1 0 0 0-.07-.105 3.54 3.54 0 0 1-.64-1.691 5 5 0 0 1 0-.703 3.6 3.6 0 0 1 .41-1.324c.086-.157.23-.38.308-.473l.051-.062-.312-.305c-.883-.871-1.082-1.063-1.09-1.059q-.06.02-.117.043a1.28 1.28 0 0 1-.97.004 1.33 1.33 0 0 1-.78-.898 1.8 1.8 0 0 1-.02-.5 1.3 1.3 0 0 1 1.64-1.055c.317.09.614.324.77.602.13.234.192.523.164.765a1.3 1.3 0 0 1-.097.39l-.04.083.266.262.926.91c.113.11.207.199.215.199a3.9 3.9 0 0 1 1.25-.621c.344-.09.511-.11.93-.11.296 0 .355 0 .492.024.414.066.75.172 1.109.36.195.1.313.175.48.296l.118.086c.004 0 .129-.129.28-.285l.45-.477c.176-.183.531-.562.594-.629l.031-.035-.023-.043a1.4 1.4 0 0 1-.133-.508 1.3 1.3 0 0 1 1.11-1.355c.144-.023.23-.023.374 0 .551.078.992.504 1.09 1.055.02.113.02.336 0 .457a1.3 1.3 0 0 1-.687.926 1.25 1.25 0 0 1-.649.14 1.2 1.2 0 0 1-.422-.09l-.097-.039-.043.047c-.426.445-.848.895-1.27 1.34l-.055.059.051.07a3.5 3.5 0 0 1 .688 1.793q.021.386-.016.773a3.53 3.53 0 0 1-.715 1.692.5.5 0 0 0-.062.09 1 1 0 0 0 .074.07c.078.074.277.254.465.43.203.19.574.527.676.625l.097.085.047-.023a1.35 1.35 0 0 1 .79-.129c.523.086.921.445 1.066.965.027.102.027.125.027.312.004.192 0 .211-.027.313a1.296 1.296 0 0 1-2.535-.059 1.2 1.2 0 0 1-.02-.238 1.1 1.1 0 0 1 .074-.45q.022-.055.04-.112c0-.012-.208-.207-1.04-.973l-.254-.234-.047-.047-.09.066a3.5 3.5 0 0 1-1.046.516 3.6 3.6 0 0 1-1.563.101 3.5 3.5 0 0 1-1.578-.683l-.094-.07-.09.093-.191.2-.84.878a4 4 0 0 0-.18.192l-.035.043.028.054c.043.094.09.239.109.348.027.152.016.39-.02.531a1.29 1.29 0 0 1-1.082.969q-.147.025-.3.008m5.023-4.903c.477-.078.852-.445.942-.918.02-.109.02-.32 0-.425a1.1 1.1 0 0 0-.329-.594 1.1 1.1 0 0 0-.55-.305 1.3 1.3 0 0 0-.524.008 1.14 1.14 0 0 0-.078 2.195c.18.055.367.067.54.04"/></svg>