<svg viewBox="0 0 40 40" width="40" height="40" xmlns="http://www.w3.org/2000/svg"><defs><clipPath clipPathUnits="userSpaceOnUse" id="c"><path style="fill:#de8b20;fill-opacity:1;stroke-width:1.01645" class="powerclip" d="M1.195 1.195h37.61v37.61H1.195ZM32.614 20A12.614 12.614 0 0 0 20 7.386 12.614 12.614 0 0 0 7.386 20 12.614 12.614 0 0 0 20 32.614 12.614 12.614 0 0 0 32.614 20"/></clipPath><clipPath clipPathUnits="userSpaceOnUse" id="a"/><clipPath clipPathUnits="userSpaceOnUse" id="b"><path style="fill:#020302;stroke-width:.324872" class="powerclip" d="M11.359 11.359H28.64V28.64H11.36ZM21.187 20A1.187 1.179 0 0 0 20 18.821 1.187 1.179 0 0 0 18.813 20 1.187 1.179 0 0 0 20 21.179 1.187 1.179 0 0 0 21.187 20"/></clipPath></defs><g style="display:inline"><path style="fill:#de8b20;stroke-width:1.93052" d="M13.172 10.582a2.606 2.606 0 0 1-2.606 2.606 2.606 2.606 0 0 1-2.606-2.606 2.606 2.606 0 0 1 2.606-2.606 2.606 2.606 0 0 1 2.606 2.606"/><path style="fill:#de8b20" transform="rotate(-45.6 -31.374 12.82)scale(1.93051)" d="M-.638 21.987h.817v3.267h-.817z"/><path style="fill:#de8b20;stroke-width:1.93052" transform="rotate(89.064 0 0)" d="M13.566-29.26a2.606 2.606 0 0 1-2.606 2.607 2.606 2.606 0 0 1-2.605-2.606 2.606 2.606 0 0 1 2.605-2.606 2.606 2.606 0 0 1 2.606 2.606"/><path style="fill:#de8b20" transform="rotate(43.464 53.058 63.314)scale(1.93051)" d="M-.638 21.987h.817v3.267h-.817z"/><path style="fill:#de8b20;stroke-width:1.93052" transform="rotate(178.252 0 0)" d="M-25.834-30.103a2.606 2.606 0 0 1-2.606 2.606 2.606 2.606 0 0 1-2.606-2.606 2.606 2.606 0 0 1 2.606-2.606 2.606 2.606 0 0 1 2.606 2.606"/><path style="fill:#de8b20" transform="rotate(132.65 17.087 41.747)scale(1.93051)" d="M-.638 21.987h.817v3.267h-.817z"/><path style="fill:#de8b20;stroke-width:1.93052" transform="rotate(-90.772 0 0)" d="M-27.053 10.205a2.606 2.606 0 0 1-2.606 2.606 2.606 2.606 0 0 1-2.606-2.606 2.606 2.606 0 0 1 2.606-2.606 2.606 2.606 0 0 1 2.606 2.606"/><path style="fill:#de8b20" transform="rotate(-136.372 2.745 33.16)scale(1.93051)" d="M-.638 21.987h.817v3.267h-.817z"/><path style="display:inline;fill:#de8b20;fill-opacity:1" clip-path="url(#a)" d="M23.641 20A3.64 3.64 0 0 1 20 23.641 3.64 3.64 0 0 1 16.359 20 3.64 3.64 0 0 1 20 16.359 3.64 3.64 0 0 1 23.641 20" transform="translate(-18.582 -18.566)scale(1.93051)"/><path style="display:inline;fill:#de8b20;fill-opacity:1" clip-path="url(#b)" d="M23.641 20A3.64 3.64 0 0 1 20 23.641 3.64 3.64 0 0 1 16.359 20 3.64 3.64 0 0 1 20 16.359 3.64 3.64 0 0 1 23.641 20" transform="translate(-18.582 -18.566)scale(1.93051)"/><g style="display:inline" transform="translate(-6.935 -6.935)scale(1.34675)"/><path style="display:inline;fill:#333;fill-opacity:1;stroke-width:1.11243" clip-path="url(#c)" d="M33.805 20A13.805 13.805 0 0 1 20 33.805 13.805 13.805 0 0 1 6.195 20 13.805 13.805 0 0 1 20 6.195 13.805 13.805 0 0 1 33.805 20" transform="translate(-6.935 -6.935)scale(1.34675)"/><path style="display:inline;fill:#c0f;stroke-width:.0214707" d="M10.36 32.105c-1.177-.126-2.084-.96-2.312-2.128a3 3 0 0 1 .002-.938 2.65 2.65 0 0 1 .744-1.379 2.5 2.5 0 0 1 1.306-.685c.24-.049.304-.054.582-.044.345.012.615.068.901.185.089.036.167.066.175.066s.379-.384.826-.853c.447-.47.915-.96 1.04-1.09.573-.595.837-.877.837-.894 0-.01-.064-.107-.142-.214-.698-.966-1.13-2.107-1.279-3.38a10 10 0 0 1 0-1.406c.115-.99.378-1.838.82-2.649.17-.313.46-.758.614-.945l.104-.127-.622-.611c-1.768-1.736-2.164-2.12-2.186-2.116a3 3 0 0 0-.23.088 2.56 2.56 0 0 1-1.938.006 2.65 2.65 0 0 1-1.563-1.796c-.057-.22-.08-.743-.042-1 .056-.384.252-.85.495-1.175a2.6 2.6 0 0 1 2.788-.934c.631.182 1.23.65 1.537 1.2.262.469.388 1.047.334 1.536a2.7 2.7 0 0 1-.2.78l-.077.164.53.52 1.857 1.82c.222.219.412.4.423.404a.6.6 0 0 0 .155-.098c.619-.478 1.552-.932 2.347-1.144.686-.182 1.027-.223 1.857-.223.597 0 .713.005.988.048.826.13 1.5.348 2.222.72.386.2.625.349.958.596.125.093.232.17.238.17s.256-.259.555-.575l.9-.95c.352-.37 1.064-1.126 1.19-1.261l.064-.07-.046-.081c-.125-.222-.244-.665-.272-1.014-.04-.475.121-1.09.402-1.535a2.6 2.6 0 0 1 1.822-1.18c.287-.042.457-.042.745 0a2.59 2.59 0 0 1 2.18 2.112c.044.227.045.669.002.911a2.62 2.62 0 0 1-1.375 1.854 2.46 2.46 0 0 1-1.298.278 2.3 2.3 0 0 1-.845-.178l-.191-.076-.09.093a807 807 0 0 0-2.538 2.68l-.111.117.107.136c.13.165.34.485.49.746.482.838.794 1.843.883 2.845a10 10 0 0 1-.034 1.543 7 7 0 0 1-1.429 3.389 1 1 0 0 0-.123.178c.003.008.07.071.147.141.16.145.554.507.932.858.408.378 1.145 1.057 1.355 1.248l.192.175.096-.051a2.7 2.7 0 0 1 1.572-.258c1.052.173 1.85.896 2.134 1.934.055.198.06.247.06.623.002.38-.002.423-.057.626-.215.795-.67 1.357-1.387 1.714a2.57 2.57 0 0 1-2.916-.445 2.6 2.6 0 0 1-.771-1.385 2.6 2.6 0 0 1-.038-.478 2.3 2.3 0 0 1 .15-.898 4 4 0 0 0 .08-.23c.002-.019-.418-.41-2.08-1.94l-.506-.468-.098-.094-.177.132c-.562.418-1.344.803-2.093 1.03-.952.288-2.103.362-3.127.2a7.05 7.05 0 0 1-3.156-1.368l-.183-.142-.182.188-.387.402-1.677 1.76c-.16.165-.324.338-.362.382l-.07.082.054.112c.093.191.185.48.222.696.051.3.032.779-.042 1.063a2.59 2.59 0 0 1-2.161 1.939 2.6 2.6 0 0 1-.601.016m10.05-9.81a2.29 2.29 0 0 0 1.88-1.833c.041-.218.04-.639-.004-.851-.1-.489-.285-.825-.653-1.19a2.2 2.2 0 0 0-1.1-.605 2.6 2.6 0 0 0-1.05.01 2.3 2.3 0 0 0-.737.325c-1.173.785-1.36 2.404-.398 3.457.23.25.653.515.983.614.358.107.731.132 1.079.073"/></g></svg>