<svg xmlns="http://www.w3.org/2000/svg" width="px" height="px" viewBox="0 0 20 20"><defs><clipPath id="a"><path d="M6 6h8v8H6Zm0 0"/></clipPath><clipPath id="b"><path d="M1.672 1.68h16.683v16.683H1.675Zm9.488 8.343a1.146 1.146 0 0 0-2.293 0c0 .63.516 1.137 1.149 1.137a1.14 1.14 0 0 0 1.144-1.137"/></clipPath><clipPath id="c"><path d="M-2.664-2.664h25.328v25.328H-2.664ZM18.492 10A8.49 8.49 0 0 0 10 1.508 8.49 8.49 0 0 0 1.508 10 8.49 8.49 0 0 0 10 18.492 8.49 8.49 0 0 0 18.492 10"/></clipPath></defs><path style="stroke:none;fill-rule:nonzero;fill:#de8b20;fill-opacity:1" d="M6.586 5.29a1.302 1.302 0 1 1-2.606 0 1.3 1.3 0 0 1 1.301-1.302c.723 0 1.305.582 1.305 1.301"/><path style="stroke:none;fill-rule:nonzero;fill:#de8b20;fill-opacity:1" d="m5.441 6.008.551-.567 2.254 2.207-.55.563Zm9.297.535a1.304 1.304 0 0 1-.043-2.605 1.304 1.304 0 0 1 .043 2.605"/><path style="stroke:none;fill-rule:nonzero;fill:#de8b20;fill-opacity:1" d="m14.004 5.41.574.543-2.168 2.29-.574-.544Zm-.633 9.238a1.304 1.304 0 0 1 2.605-.078 1.31 1.31 0 0 1-1.265 1.344 1.3 1.3 0 0 1-1.34-1.262"/><path style="stroke:none;fill-rule:nonzero;fill:#de8b20;fill-opacity:1" d="m14.492 13.898-.535.582-2.32-2.136.535-.582Zm-9.207-.441a1.304 1.304 0 0 1 .035 2.605 1.304 1.304 0 0 1-.035-2.605"/><path style="stroke:none;fill-rule:nonzero;fill:#de8b20;fill-opacity:1" d="m6.016 14.59-.57-.543 2.175-2.281.57.543Zm0 0"/><g clip-path="url(#a)"><g clip-path="url(#b)"><path style="stroke:none;fill-rule:nonzero;fill:#de8b20;fill-opacity:1" d="M13.527 10.023a3.507 3.507 0 0 1-3.511 3.512A3.51 3.51 0 0 1 6.5 10.023a3.513 3.513 0 1 1 7.027 0"/></g></g><g clip-path="url(#c)"><path style="stroke:none;fill-rule:nonzero;fill:#333;fill-opacity:1" d="M19.297 10c0 5.133-4.164 9.297-9.297 9.297S.703 15.133.703 10 4.867.703 10 .703 19.297 4.867 19.297 10"/></g></svg>