<svg xmlns="http://www.w3.org/2000/svg" width="px" height="px" viewBox="0 0 20 20"><defs><clipPath id="a"><path d="M6 6h8v8H6Zm0 0"/></clipPath><clipPath id="b"><path d="M1.672 1.68h16.683v16.683H1.675Zm9.488 8.343a1.146 1.146 0 0 0-2.293 0c0 .63.516 1.137 1.149 1.137a1.14 1.14 0 0 0 1.144-1.137"/></clipPath><clipPath id="c"><path d="M-2.664-2.664h25.328v25.328H-2.664ZM18.492 10A8.49 8.49 0 0 0 10 1.508 8.49 8.49 0 0 0 1.508 10 8.49 8.49 0 0 0 10 18.492 8.49 8.49 0 0 0 18.492 10"/></clipPath></defs><path style="stroke:none;fill-rule:nonzero;fill:#de8b20;fill-opacity:1" d="M6.586 5.29a1.302 1.302 0 1 1-2.606 0 1.3 1.3 0 0 1 1.301-1.302c.723 0 1.305.582 1.305 1.301"/><path style="stroke:none;fill-rule:nonzero;fill:#de8b20;fill-opacity:1" d="m5.441 6.008.551-.567 2.254 2.207-.55.563Zm9.297.535a1.304 1.304 0 0 1-.043-2.605 1.304 1.304 0 0 1 .043 2.605"/><path style="stroke:none;fill-rule:nonzero;fill:#de8b20;fill-opacity:1" d="m14.004 5.41.574.543-2.172 2.29-.57-.544Zm-.633 9.242a1.304 1.304 0 0 1 2.605-.082 1.31 1.31 0 0 1-1.265 1.344 1.3 1.3 0 0 1-1.34-1.262"/><path style="stroke:none;fill-rule:nonzero;fill:#de8b20;fill-opacity:1" d="m14.492 13.898-.535.582-2.32-2.136.535-.582Zm-9.207-.441a1.304 1.304 0 0 1 .035 2.605 1.304 1.304 0 0 1-.035-2.605"/><path style="stroke:none;fill-rule:nonzero;fill:#de8b20;fill-opacity:1" d="m6.016 14.59-.57-.543 2.175-2.281.57.543Zm0 0"/><g clip-path="url(#a)"><g clip-path="url(#b)"><path style="stroke:none;fill-rule:nonzero;fill:#de8b20;fill-opacity:1" d="M13.527 10.023a3.507 3.507 0 0 1-3.511 3.512A3.51 3.51 0 0 1 6.5 10.023a3.513 3.513 0 1 1 7.027 0"/></g></g><g clip-path="url(#c)"><path style="stroke:none;fill-rule:nonzero;fill:#333;fill-opacity:1" d="M19.297 10c0 5.133-4.164 9.297-9.297 9.297S.703 15.133.703 10 4.867.703 10 .703 19.297 4.867 19.297 10"/></g><path style="stroke:none;fill-rule:nonzero;fill:#2a7fff;fill-opacity:1" d="M5.152 16.05a1.32 1.32 0 0 1-1.004-.698 1.3 1.3 0 0 1-.14-.598c0-.496.277-.934.73-1.16.317-.16.719-.172 1.059-.035.039.02.078.03.082.03s.312-.316.684-.706l.675-.711-.082-.113a3.4 3.4 0 0 1-.547-1.2 3.5 3.5 0 0 1 .614-2.96.4.4 0 0 0 .058-.094c-.199-.2-.398-.399-.605-.598l-.692-.676-.093-.093-.063.03a1.28 1.28 0 0 1-1.113-.015 1.3 1.3 0 0 1-.692-.848A1.5 1.5 0 0 1 4 5.11a1.3 1.3 0 0 1 .98-1.078A.9.9 0 0 1 5.273 4c.184 0 .262.012.415.059.242.078.472.246.632.453.082.113.184.316.22.453.038.148.046.394.019.55q-.03.17-.102.329l-.02.039.282.277c.601.59 1.113 1.094 1.125 1.094a.3.3 0 0 0 .086-.055 3.55 3.55 0 0 1 1.785-.672q.381-.023.762.016c.605.082 1.18.32 1.664.687.043.032.078.06.082.06.015 0 1.351-1.415 1.351-1.427a.3.3 0 0 0-.031-.074 1.2 1.2 0 0 1-.117-.55c0-.153.008-.227.047-.36a1.3 1.3 0 0 1 .992-.91 1.3 1.3 0 0 1 1.512.953c.027.101.027.121.027.316 0 .192 0 .219-.027.313a1.29 1.29 0 0 1-.957.949.9.9 0 0 1-.301.031c-.207 0-.309-.02-.48-.086l-.098-.039-.043.047c-.028.027-.336.352-.688.723l-.637.676.043.058a3.5 3.5 0 0 1 .68 1.664 4.7 4.7 0 0 1-.004.938 3.54 3.54 0 0 1-.672 1.613c-.035.043-.066.094-.097.14 0 .008.293.282.652.614l.652.601.09-.039a1.28 1.28 0 0 1 1.09-.007c.348.156.61.457.715.824.125.453-.004.937-.332 1.27a1.32 1.32 0 0 1-1.172.355 1.303 1.303 0 0 1-.95-1.754c.02-.043.028-.082.024-.086-.031-.031-1.262-1.16-1.297-1.195l-.047-.043-.062.047c-.465.355-1.11.601-1.73.664a5 5 0 0 1-.672 0 3.5 3.5 0 0 1-1.782-.696l-.101-.074c-.02-.012-.086.055-.688.684q-.669.702-.664.718l.043.102a1.296 1.296 0 0 1-.777 1.738 1.5 1.5 0 0 1-.563.063m5.051-4.903c.485-.078.863-.457.945-.937a1.5 1.5 0 0 0-.003-.399 1.1 1.1 0 0 0-.348-.624 1.14 1.14 0 0 0-.524-.278 1.4 1.4 0 0 0-.472-.012 1.16 1.16 0 0 0-.817.618 1.1 1.1 0 0 0-.113.394c-.023.2.012.406.106.598a1.15 1.15 0 0 0 1.227.64"/></svg>