<svg xmlns="http://www.w3.org/2000/svg" width="px" height="px" viewBox="0 0 20 20"><defs><clipPath id="a"><path d="M6 6h8v8H6Zm0 0"/></clipPath><clipPath id="b"><path d="M1.672 1.68h16.683v16.683H1.675Zm9.488 8.343a1.146 1.146 0 0 0-2.293 0c0 .63.516 1.137 1.149 1.137a1.14 1.14 0 0 0 1.144-1.137"/></clipPath><clipPath id="c"><path d="M-2.664-2.664h25.328v25.328H-2.664ZM18.492 10A8.49 8.49 0 0 0 10 1.508 8.49 8.49 0 0 0 1.508 10 8.49 8.49 0 0 0 10 18.492 8.49 8.49 0 0 0 18.492 10"/></clipPath></defs><path style="stroke:none;fill-rule:nonzero;fill:#de8b20;fill-opacity:1" d="M6.586 5.29a1.302 1.302 0 1 1-2.606 0 1.3 1.3 0 0 1 1.301-1.302c.723 0 1.305.582 1.305 1.301"/><path style="stroke:none;fill-rule:nonzero;fill:#de8b20;fill-opacity:1" d="m5.441 6.008.551-.567 2.254 2.207-.55.563Zm9.297.535a1.304 1.304 0 0 1-.043-2.605 1.304 1.304 0 0 1 .043 2.605"/><path style="stroke:none;fill-rule:nonzero;fill:#de8b20;fill-opacity:1" d="m14.004 5.41.574.543-2.172 2.29-.57-.544Zm-.633 9.242a1.304 1.304 0 0 1 2.605-.082 1.31 1.31 0 0 1-1.265 1.344 1.3 1.3 0 0 1-1.34-1.262"/><path style="stroke:none;fill-rule:nonzero;fill:#de8b20;fill-opacity:1" d="m14.492 13.898-.535.582-2.32-2.136.535-.582Zm-9.207-.441a1.304 1.304 0 0 1 .035 2.605 1.304 1.304 0 0 1-.035-2.605"/><path style="stroke:none;fill-rule:nonzero;fill:#de8b20;fill-opacity:1" d="m6.016 14.59-.57-.543 2.175-2.281.57.543Zm0 0"/><g clip-path="url(#a)"><g clip-path="url(#b)"><path style="stroke:none;fill-rule:nonzero;fill:#de8b20;fill-opacity:1" d="M13.527 10.023a3.507 3.507 0 0 1-3.511 3.512A3.51 3.51 0 0 1 6.5 10.023a3.513 3.513 0 1 1 7.027 0"/></g></g><g clip-path="url(#c)"><path style="stroke:none;fill-rule:nonzero;fill:#333;fill-opacity:1" d="M19.297 10c0 5.133-4.164 9.297-9.297 9.297S.703 15.133.703 10 4.867.703 10 .703 19.297 4.867 19.297 10"/></g><path style="stroke:none;fill-rule:nonzero;fill:#ff0;fill-opacity:1" d="M5.152 16.05a1.3 1.3 0 0 1-1.007-.706 1.2 1.2 0 0 1-.137-.586c0-.348.117-.64.355-.89.149-.157.332-.274.535-.34.16-.051.211-.06.407-.06.207 0 .308.02.48.087l.098.039.105-.114c.063-.058.196-.199.297-.308.102-.11.238-.25.3-.317q.3-.312.599-.628l.054-.055-.047-.063a4 4 0 0 1-.464-.851 3.6 3.6 0 0 1-.184-1.754c.086-.57.309-1.11.652-1.57.047-.067.09-.125.09-.13a.4.4 0 0 0-.058-.058c-.032-.031-.262-.254-.512-.5-.692-.68-.817-.8-.832-.797a1 1 0 0 0-.102.04 1.295 1.295 0 0 1-1.793-1.196c0-.344.117-.645.352-.89a1.3 1.3 0 0 1 1.683-.18c.153.105.336.312.422.484.16.324.18.727.043 1.063l-.043.113c0 .008.266.27.72.715l.456.445c.117.113.215.21.223.21.004.005.047-.023.09-.058a3.5 3.5 0 0 1 1.77-.668c.269-.02.546-.011.816.02a3.5 3.5 0 0 1 1.605.672l.102.074.097-.102c.055-.054.176-.183.274-.289.097-.101.265-.28.375-.398l.402-.418.203-.215-.039-.082a1.2 1.2 0 0 1-.117-.555c0-.62.441-1.152 1.05-1.27q.236-.034.466-.003c.46.082.843.406 1.003.848.09.27.094.562.012.832a1.3 1.3 0 0 1-1.75.793l-.062-.028-.059.063c-.09.097-.777.82-.895.945-.347.363-.406.426-.406.438 0 .003.028.05.067.097.289.39.5.867.605 1.36.067.355.082.714.055 1.074q-.052.487-.235.945c-.117.3-.347.688-.527.899-.016.02-.031.039-.027.043.004.007.152.144.672.625l.37.34.27.245.063-.03q.247-.126.523-.134a1.29 1.29 0 0 1 1.352 1.293c0 .352-.133.672-.38.918a1.3 1.3 0 0 1-.66.356 1.5 1.5 0 0 1-.527-.004 1.29 1.29 0 0 1-.875-.66 1.28 1.28 0 0 1-.058-1.09l.031-.078-.05-.043-.817-.754a17 17 0 0 0-.477-.434 1 1 0 0 0-.152.09c-.156.11-.23.152-.387.235a3.5 3.5 0 0 1-1.793.382 3.46 3.46 0 0 1-1.96-.73l-.067-.05c-.016-.013-.07.038-.422.41l-.668.702a4 4 0 0 0-.262.282c0 .004.016.035.032.07.074.148.12.355.12.55 0 .356-.132.673-.386.923-.184.18-.414.304-.664.351-.106.02-.297.027-.395.016m5.102-4.91a1.144 1.144 0 0 0 .543-1.953c-.555-.524-1.469-.356-1.813.328a1.1 1.1 0 0 0-.113.617 1.146 1.146 0 0 0 .973 1.02c.09.015.32.007.41-.012"/></svg>