<svg viewBox="0 0 40 40" width="40" height="40" xmlns="http://www.w3.org/2000/svg"><defs><clipPath clipPathUnits="userSpaceOnUse" id="c"><path style="fill:#de8b20;fill-opacity:1;stroke-width:1.01645" class="powerclip" d="M1.195 1.195h37.61v37.61H1.195ZM32.614 20A12.614 12.614 0 0 0 20 7.386 12.614 12.614 0 0 0 7.386 20 12.614 12.614 0 0 0 20 32.614 12.614 12.614 0 0 0 32.614 20"/></clipPath><clipPath clipPathUnits="userSpaceOnUse" id="a"/><clipPath clipPathUnits="userSpaceOnUse" id="b"><path style="fill:#020302;stroke-width:.324872" class="powerclip" d="M11.359 11.359H28.64V28.64H11.36ZM21.187 20A1.187 1.179 0 0 0 20 18.821 1.187 1.179 0 0 0 18.813 20 1.187 1.179 0 0 0 20 21.179 1.187 1.179 0 0 0 21.187 20"/></clipPath></defs><path style="fill:#de8b20;stroke-width:1.93052" d="M13.172 10.582a2.606 2.606 0 0 1-2.606 2.606 2.606 2.606 0 0 1-2.606-2.606 2.606 2.606 0 0 1 2.606-2.606 2.606 2.606 0 0 1 2.606 2.606"/><path style="fill:#de8b20" transform="rotate(-45.6 -31.374 12.82)scale(1.93052)" d="M-.638 21.987h.817v3.267h-.817z"/><path style="fill:#de8b20;stroke-width:1.93052" d="M29.477 13.087a2.606 2.606 0 0 1-2.648-2.564 2.606 2.606 0 0 1 2.563-2.648 2.606 2.606 0 0 1 2.648 2.563 2.606 2.606 0 0 1-2.563 2.649"/><path style="fill:#de8b20" transform="rotate(43.464 53.058 63.317)scale(1.93052)" d="M-.638 21.987h.817v3.267h-.817z"/><path style="fill:#de8b20;stroke-width:1.93052" d="M26.74 29.3a2.606 2.606 0 0 1 2.525-2.683 2.606 2.606 0 0 1 2.685 2.525 2.606 2.606 0 0 1-2.526 2.684 2.606 2.606 0 0 1-2.684-2.525"/><path style="fill:#de8b20" transform="rotate(132.652 17.087 41.747)scale(1.93052)" d="M-.638 21.987h.817v3.267h-.817z"/><path style="fill:#de8b20;stroke-width:1.93052" d="M10.569 26.913a2.606 2.606 0 0 1 2.64 2.571 2.606 2.606 0 0 1-2.57 2.64 2.606 2.606 0 0 1-2.641-2.57 2.606 2.606 0 0 1 2.57-2.64"/><path style="fill:#de8b20" transform="rotate(-136.372 2.744 33.16)scale(1.93052)" d="M-.638 21.987h.817v3.267h-.817z"/><path style="fill:#de8b20;fill-opacity:1" clip-path="url(#a)" d="M23.641 20A3.64 3.64 0 0 1 20 23.641 3.64 3.64 0 0 1 16.359 20 3.64 3.64 0 0 1 20 16.359 3.64 3.64 0 0 1 23.641 20" transform="translate(-18.582 -18.566)scale(1.93052)"/><path style="fill:#de8b20;fill-opacity:1" clip-path="url(#b)" d="M23.641 20A3.64 3.64 0 0 1 20 23.641 3.64 3.64 0 0 1 16.359 20 3.64 3.64 0 0 1 20 16.359 3.64 3.64 0 0 1 23.641 20" transform="translate(-18.582 -18.566)scale(1.93052)"/><path style="fill:#333;fill-opacity:1;stroke-width:1.11243" clip-path="url(#c)" d="M33.805 20A13.805 13.805 0 0 1 20 33.805 13.805 13.805 0 0 1 6.195 20 13.805 13.805 0 0 1 20 6.195 13.805 13.805 0 0 1 33.805 20" transform="translate(-6.935 -6.935)scale(1.34675)"/></svg>