<svg viewBox="0 0 40 40" width="40" height="40" xmlns="http://www.w3.org/2000/svg"><defs><clipPath clipPathUnits="userSpaceOnUse" id="c"><path style="fill:#de8b20;fill-opacity:1;stroke-width:1.01645" class="powerclip" d="M1.195 1.195h37.61v37.61H1.195ZM32.614 20A12.614 12.614 0 0 0 20 7.386 12.614 12.614 0 0 0 7.386 20 12.614 12.614 0 0 0 20 32.614 12.614 12.614 0 0 0 32.614 20"/></clipPath><clipPath clipPathUnits="userSpaceOnUse" id="a"/><clipPath clipPathUnits="userSpaceOnUse" id="b"><path style="fill:#020302;stroke-width:.324872" class="powerclip" d="M11.359 11.359H28.64V28.64H11.36ZM21.187 20A1.187 1.179 0 0 0 20 18.821 1.187 1.179 0 0 0 18.813 20 1.187 1.179 0 0 0 20 21.179 1.187 1.179 0 0 0 21.187 20"/></clipPath></defs><g style="display:inline"><path style="fill:#de8b20;stroke-width:1.93052" d="M13.172 10.582a2.606 2.606 0 0 1-2.606 2.606 2.606 2.606 0 0 1-2.606-2.606 2.606 2.606 0 0 1 2.606-2.606 2.606 2.606 0 0 1 2.606 2.606"/><path style="fill:#de8b20" transform="rotate(-45.6 -31.374 12.82)scale(1.93051)" d="M-.638 21.987h.817v3.267h-.817z"/><path style="fill:#de8b20;stroke-width:1.93052" transform="rotate(89.064 0 0)" d="M13.566-29.26a2.606 2.606 0 0 1-2.606 2.607 2.606 2.606 0 0 1-2.605-2.606 2.606 2.606 0 0 1 2.605-2.606 2.606 2.606 0 0 1 2.606 2.606"/><path style="fill:#de8b20" transform="rotate(43.464 53.058 63.314)scale(1.93051)" d="M-.638 21.987h.817v3.267h-.817z"/><path style="fill:#de8b20;stroke-width:1.93052" transform="rotate(178.252 0 0)" d="M-25.834-30.103a2.606 2.606 0 0 1-2.606 2.606 2.606 2.606 0 0 1-2.606-2.606 2.606 2.606 0 0 1 2.606-2.606 2.606 2.606 0 0 1 2.606 2.606"/><path style="fill:#de8b20" transform="rotate(132.65 17.087 41.747)scale(1.93051)" d="M-.638 21.987h.817v3.267h-.817z"/><path style="fill:#de8b20;stroke-width:1.93052" transform="rotate(-90.772 0 0)" d="M-27.053 10.205a2.606 2.606 0 0 1-2.606 2.606 2.606 2.606 0 0 1-2.606-2.606 2.606 2.606 0 0 1 2.606-2.606 2.606 2.606 0 0 1 2.606 2.606"/><path style="fill:#de8b20" transform="rotate(-136.372 2.745 33.16)scale(1.93051)" d="M-.638 21.987h.817v3.267h-.817z"/><path style="display:inline;fill:#de8b20;fill-opacity:1" clip-path="url(#a)" d="M23.641 20A3.64 3.64 0 0 1 20 23.641 3.64 3.64 0 0 1 16.359 20 3.64 3.64 0 0 1 20 16.359 3.64 3.64 0 0 1 23.641 20" transform="translate(-18.582 -18.566)scale(1.93051)"/><path style="display:inline;fill:#de8b20;fill-opacity:1" clip-path="url(#b)" d="M23.641 20A3.64 3.64 0 0 1 20 23.641 3.64 3.64 0 0 1 16.359 20 3.64 3.64 0 0 1 20 16.359 3.64 3.64 0 0 1 23.641 20" transform="translate(-18.582 -18.566)scale(1.93051)"/><g style="display:inline" transform="translate(-6.935 -6.935)scale(1.34675)"/><path style="display:inline;fill:#333;fill-opacity:1;stroke-width:1.11243" clip-path="url(#c)" d="M33.805 20A13.805 13.805 0 0 1 20 33.805 13.805 13.805 0 0 1 6.195 20 13.805 13.805 0 0 1 20 6.195 13.805 13.805 0 0 1 33.805 20" transform="translate(-6.935 -6.935)scale(1.34675)"/><path style="fill:#ff0;stroke-width:.0214707" d="M10.301 32.098a2.6 2.6 0 0 1-2.014-1.409 2.5 2.5 0 0 1-.275-1.177c.001-.69.24-1.28.718-1.781a2.5 2.5 0 0 1 1.066-.676c.321-.105.421-.12.81-.119.419.001.624.038.961.173l.197.079.216-.224c.118-.123.384-.402.59-.62s.476-.503.601-.633a163 163 0 0 0 1.195-1.254l.11-.116-.09-.12a8 8 0 0 1-.933-1.709 7.1 7.1 0 0 1-.367-3.505 7 7 0 0 1 1.305-3.143c.097-.129.177-.243.177-.252s-.05-.065-.113-.122c-.062-.057-.523-.507-1.025-.998-1.382-1.356-1.636-1.6-1.662-1.595a3 3 0 0 0-.206.08 2.59 2.59 0 0 1-3.118-.9 2.54 2.54 0 0 1-.468-1.492c0-.685.238-1.289.702-1.782a2.606 2.606 0 0 1 3.367-.358c.307.208.672.628.843.97.325.65.359 1.45.09 2.122a3 3 0 0 0-.085.227c0 .015.53.542 1.439 1.432l.908.89c.234.23.434.42.444.424s.095-.05.187-.12c.971-.739 2.238-1.218 3.532-1.337a9.3 9.3 0 0 1 1.638.043 6.96 6.96 0 0 1 3.208 1.34l.202.15.195-.202c.108-.112.355-.372.549-.578.194-.207.533-.564.752-.795l.804-.843.404-.425-.075-.165a2.5 2.5 0 0 1-.237-1.111 2.585 2.585 0 0 1 2.104-2.537 3.4 3.4 0 0 1 .93-.01 2.62 2.62 0 0 1 2.004 1.694 2.68 2.68 0 0 1 .022 1.669 2.6 2.6 0 0 1-2.468 1.793c-.34 0-.736-.081-1.027-.21l-.126-.056-.119.127c-.179.192-1.551 1.642-1.787 1.889-.698.728-.815.854-.815.878 0 .009.06.097.134.197.575.776 1 1.73 1.209 2.718a8 8 0 0 1 .108 2.143 7 7 0 0 1-.466 1.892c-.237.605-.691 1.38-1.054 1.798-.034.04-.06.079-.056.087.006.014.306.291 1.349 1.248l.74.682.536.494.13-.065a2.45 2.45 0 0 1 1.041-.266 2.55 2.55 0 0 1 1.944.753 2.56 2.56 0 0 1 .762 1.835c0 .703-.265 1.341-.762 1.838a2.57 2.57 0 0 1-1.32.71 3.1 3.1 0 0 1-1.053-.007 2.6 2.6 0 0 1-1.867-3.507l.061-.15-.1-.092-1.634-1.506a55 55 0 0 0-.95-.866 2 2 0 0 0-.303.184c-.315.212-.46.299-.779.468-1.043.552-2.399.84-3.585.762-1.185-.079-2.166-.372-3.156-.945a8 8 0 0 1-.763-.514l-.132-.105c-.03-.024-.138.081-.848.826l-1.333 1.399c-.287.3-.52.554-.52.565s.027.075.061.143c.15.296.239.708.239 1.1 0 .71-.267 1.348-.773 1.846-.365.359-.83.604-1.33.7-.208.04-.59.054-.79.03m10.21-9.82c.99-.217 1.726-1.046 1.805-2.032a2.2 2.2 0 0 0-.222-1.19 2.1 2.1 0 0 0-.503-.681c-1.109-1.044-2.938-.71-3.62.659a2.2 2.2 0 0 0-.23 1.23c.035.308.092.506.23.788.326.67.966 1.137 1.72 1.255.178.028.634.012.82-.029"/></g></svg>