<svg viewBox="0 0 40 40" width="40" height="40" xmlns="http://www.w3.org/2000/svg"><defs><clipPath clipPathUnits="userSpaceOnUse" id="c"><path style="fill:#de8b20;fill-opacity:1;stroke-width:1.01645" class="powerclip" d="M1.195 1.195h37.61v37.61H1.195ZM32.614 20A12.614 12.614 0 0 0 20 7.386 12.614 12.614 0 0 0 7.386 20 12.614 12.614 0 0 0 20 32.614 12.614 12.614 0 0 0 32.614 20"/></clipPath><clipPath clipPathUnits="userSpaceOnUse" id="a"/><clipPath clipPathUnits="userSpaceOnUse" id="b"><path style="fill:#020302;stroke-width:.324872" class="powerclip" d="M11.359 11.359H28.64V28.64H11.36ZM21.187 20A1.187 1.179 0 0 0 20 18.821 1.187 1.179 0 0 0 18.813 20 1.187 1.179 0 0 0 20 21.179 1.187 1.179 0 0 0 21.187 20"/></clipPath></defs><g style="display:inline"><path style="fill:#de8b20;stroke-width:1.93052" d="M13.172 10.582a2.606 2.606 0 0 1-2.606 2.606 2.606 2.606 0 0 1-2.606-2.606 2.606 2.606 0 0 1 2.606-2.606 2.606 2.606 0 0 1 2.606 2.606"/><path style="fill:#de8b20" transform="rotate(-45.6 -31.374 12.82)scale(1.93051)" d="M-.638 21.987h.817v3.267h-.817z"/><path style="fill:#de8b20;stroke-width:1.93052" transform="rotate(89.064 0 0)" d="M13.566-29.26a2.606 2.606 0 0 1-2.606 2.607 2.606 2.606 0 0 1-2.605-2.606 2.606 2.606 0 0 1 2.605-2.606 2.606 2.606 0 0 1 2.606 2.606"/><path style="fill:#de8b20" transform="rotate(43.464 53.058 63.314)scale(1.93051)" d="M-.638 21.987h.817v3.267h-.817z"/><path style="fill:#de8b20;stroke-width:1.93052" transform="rotate(178.252 0 0)" d="M-25.834-30.103a2.606 2.606 0 0 1-2.606 2.606 2.606 2.606 0 0 1-2.606-2.606 2.606 2.606 0 0 1 2.606-2.606 2.606 2.606 0 0 1 2.606 2.606"/><path style="fill:#de8b20" transform="rotate(132.65 17.087 41.747)scale(1.93051)" d="M-.638 21.987h.817v3.267h-.817z"/><path style="fill:#de8b20;stroke-width:1.93052" transform="rotate(-90.772 0 0)" d="M-27.053 10.205a2.606 2.606 0 0 1-2.606 2.606 2.606 2.606 0 0 1-2.606-2.606 2.606 2.606 0 0 1 2.606-2.606 2.606 2.606 0 0 1 2.606 2.606"/><path style="fill:#de8b20" transform="rotate(-136.372 2.745 33.16)scale(1.93051)" d="M-.638 21.987h.817v3.267h-.817z"/><path style="display:inline;fill:#de8b20;fill-opacity:1" clip-path="url(#a)" d="M23.641 20A3.64 3.64 0 0 1 20 23.641 3.64 3.64 0 0 1 16.359 20 3.64 3.64 0 0 1 20 16.359 3.64 3.64 0 0 1 23.641 20" transform="translate(-18.582 -18.566)scale(1.93051)"/><path style="display:inline;fill:#de8b20;fill-opacity:1" clip-path="url(#b)" d="M23.641 20A3.64 3.64 0 0 1 20 23.641 3.64 3.64 0 0 1 16.359 20 3.64 3.64 0 0 1 20 16.359 3.64 3.64 0 0 1 23.641 20" transform="translate(-18.582 -18.566)scale(1.93051)"/><g style="display:inline" transform="translate(-6.935 -6.935)scale(1.34675)"/><path style="display:inline;fill:#333;fill-opacity:1;stroke-width:1.11243" clip-path="url(#c)" d="M33.805 20A13.805 13.805 0 0 1 20 33.805 13.805 13.805 0 0 1 6.195 20 13.805 13.805 0 0 1 20 6.195 13.805 13.805 0 0 1 33.805 20" transform="translate(-6.935 -6.935)scale(1.34675)"/><path style="display:inline;fill:#0f0;stroke-width:.0214707" d="M10.301 32.098A2.62 2.62 0 0 1 8.3 30.703a2.5 2.5 0 0 1-.282-1.193c0-.993.55-1.87 1.456-2.325.633-.318 1.442-.342 2.119-.064.081.034.156.061.165.061s.626-.638 1.37-1.418l1.351-1.418-.164-.23a6.9 6.9 0 0 1-1.098-2.396 7.01 7.01 0 0 1 1.228-5.924.8.8 0 0 0 .12-.185 89 89 0 0 0-1.21-1.194l-1.388-1.358-.186-.183-.123.058a2.56 2.56 0 0 1-2.231-.03c-.7-.345-1.172-.927-1.378-1.696a3 3 0 0 1-.051-.989c.09-.621.409-1.201.88-1.604.317-.27.66-.446 1.085-.555.21-.054.275-.06.58-.061.373-.001.53.021.83.119.49.158.951.489 1.266.906.169.225.368.634.44.906.077.296.096.79.04 1.1a3 3 0 0 1-.206.655l-.04.08.563.554c1.201 1.182 2.23 2.185 2.249 2.191.01.004.09-.046.176-.11.996-.748 2.274-1.23 3.567-1.348a10 10 0 0 1 1.528.033 7.06 7.06 0 0 1 3.327 1.379c.081.063.156.115.165.115.026 0 2.703-2.828 2.703-2.855a1 1 0 0 0-.062-.147 2.4 2.4 0 0 1-.239-1.097c0-.309.02-.456.098-.725a2.61 2.61 0 0 1 1.985-1.818c.823-.166 1.7.093 2.3.68a2.6 2.6 0 0 1 .72 1.228c.054.2.058.242.058.633 0 .383-.004.436-.055.624-.262.968-.953 1.653-1.917 1.9-.214.056-.271.061-.602.061-.412 0-.613-.036-.962-.176l-.19-.075-.093.094c-.051.052-.668.702-1.371 1.445l-1.278 1.35.092.12c.713.935 1.182 2.084 1.36 3.33.059.421.052 1.448-.013 1.869-.19 1.228-.628 2.286-1.338 3.23a3 3 0 0 0-.198.281c-.001.012.586.564 1.304 1.227l1.307 1.204.175-.081a2.596 2.596 0 0 1 3.608 1.637 2.6 2.6 0 0 1-.664 2.539c-.618.61-1.51.88-2.34.708a2.6 2.6 0 0 1-1.898-3.508c.035-.087.056-.166.047-.174-.067-.059-2.526-2.32-2.596-2.388l-.089-.084-.126.096c-.934.71-2.223 1.202-3.463 1.324-.31.03-1.041.031-1.346.001a7.03 7.03 0 0 1-3.564-1.39l-.201-.152c-.035-.025-.168.108-1.374 1.373q-1.336 1.403-1.324 1.434c.005.019.044.111.086.205.24.546.273 1.222.086 1.803a2.62 2.62 0 0 1-1.645 1.672 2.8 2.8 0 0 1-1.127.121m10.105-9.801a2.29 2.29 0 0 0 1.892-1.876 3 3 0 0 0-.008-.797 2.23 2.23 0 0 0-.7-1.25 2.25 2.25 0 0 0-1.046-.557 2.9 2.9 0 0 0-.941-.02 2.28 2.28 0 0 0-1.632 1.237c-.137.28-.195.478-.23.787-.044.401.027.81.21 1.196.163.345.384.618.68.842a2.3 2.3 0 0 0 1.775.438"/></g></svg>